<svg width="32" height="32" viewBox="0 0 32 32" xmlns="http://www.w3.org/2000/svg">
<path d="M11.7867 14.4467H9.16667V11.968H11.544C14.048 11.968 13.7387 14.4467 11.7867 14.4467ZM19.5053 15.8573H23.004C22.8507 13.608 19.8573 13.444 19.5053 15.8573ZM11.6387 16.3853H9.16667V18.9813H11.5987C13.9747 18.98 13.8293 16.3853 11.6387 16.3853ZM32 16C32 24.836 24.836 32 16 32C7.164 32 0 24.836 0 16C0 7.164 7.164 0 16 0C24.836 0 32 7.164 32 16ZM14.1907 15.0227C16.4147 13.8853 16.3333 9.71467 12.0747 9.652H6.66667V21.292H11.6947C16.972 21.292 16.8827 16.0027 14.1907 15.0227ZM18.6667 10.8013H24V9.63467H18.6667V10.8013ZM25.2573 15.7253C24.5307 11.052 17.1867 10.7773 17.1867 16.888C17.1867 22.9227 24.0933 21.9787 25.1187 18.968H22.6547C21.7947 19.9653 19.3107 19.676 19.4493 17.3893H25.3293C25.3413 16.6493 25.3173 16.1187 25.2573 15.7253Z" />
</svg>
