<svg width="293" height="64" viewBox="0 0 293 64" fill="none" xmlns="http://www.w3.org/2000/svg">
<path d="M24.4222 0.350877H38.6421C45.0276 0.350877 51.1515 2.92513 55.6667 7.50734C60.1819 12.0895 62.7185 18.3043 62.7185 24.7846V49.5284C62.7187 51.3828 62.3589 53.2191 61.6597 54.9324C60.9606 56.6457 59.9356 58.2024 58.6436 59.5137C57.3515 60.8249 55.8175 61.8651 54.1293 62.5746C52.441 63.2842 50.6316 63.6493 48.8043 63.6491H14.26C12.4327 63.6493 10.6233 63.2842 8.93503 62.5746C7.24679 61.8651 5.71282 60.8249 4.42073 59.5137C3.12864 58.2024 2.10373 56.6457 1.40454 54.9324C0.705344 53.2191 0.345566 51.3828 0.345747 49.5284V24.7846C0.345747 18.3043 2.88237 12.0895 7.39758 7.50734C11.9128 2.92513 18.0367 0.350877 24.4222 0.350877Z" fill="black"/>
<path d="M48.8043 64H14.26C10.4794 63.9955 6.85482 62.4694 4.18151 59.7565C1.50819 57.0435 0.00439226 53.3652 0 49.5284V24.7846C0 11.1186 10.956 0 24.4222 0H38.6421C52.1082 0 63.0643 11.1186 63.0643 24.7846V49.5284C63.0599 53.3652 61.5561 57.0435 58.8828 59.7565C56.2095 62.4694 52.5849 63.9955 48.8043 64ZM24.4222 0.701754C11.3405 0.701754 0.691494 11.5088 0.691494 24.7846V49.5284C0.695521 53.1792 2.12635 56.6792 4.67006 59.2606C7.21378 61.8421 10.6626 63.2942 14.26 63.2982H48.8043C52.4016 63.2942 55.8505 61.8421 58.3942 59.2606C60.9379 56.6792 62.3688 53.1792 62.3728 49.5284V24.7846C62.3728 11.5088 51.7238 0.701754 38.6421 0.701754H24.4222Z" fill="#F5EFED"/>
<path d="M49.3976 37.4737C44.9305 37.4737 38.2313 35.6491 31.5321 35.6491C24.8329 35.6491 18.1337 37.4737 13.6667 37.4737C9.44166 37.4737 6.016 33.8246 6.016 29.3151V20.6807C6.016 12.3593 12.3418 5.61404 20.1446 5.61404H42.9197C50.7225 5.61404 57.0483 12.3593 57.0483 20.6807V29.3151C57.0483 33.8246 53.6226 37.4737 49.3976 37.4737Z" fill="#F5EFED"/>
<path d="M49.3976 37.8246C47.3646 37.8246 44.8434 37.4456 42.1729 37.0442C38.9021 36.553 35.1943 35.9958 31.5321 35.9958C27.87 35.9958 24.1622 36.5572 20.8914 37.0442C18.2209 37.4456 15.6997 37.8246 13.6667 37.8246C9.25773 37.8246 5.67025 34.007 5.67025 29.3151V20.6807C5.67025 12.1797 12.1703 5.26316 20.1446 5.26316H42.9197C50.9009 5.26316 57.394 12.1797 57.394 20.6807V29.3151C57.394 34.007 53.8066 37.8246 49.3976 37.8246ZM31.5321 35.294C35.2455 35.294 38.9795 35.8554 42.2752 36.3495C44.9181 36.7481 47.4158 37.1228 49.3976 37.1228C53.4249 37.1228 56.7025 33.614 56.7025 29.3151V20.6807C56.7025 12.567 50.5192 5.96491 42.9197 5.96491H20.1446C12.5451 5.96491 6.36175 12.5614 6.36175 20.6807V29.3151C6.36175 33.6196 9.63943 37.1228 13.6667 37.1228C15.6485 37.1228 18.1462 36.7481 20.7891 36.3495C24.0847 35.8554 27.8188 35.294 31.5321 35.294Z" fill="#F5EFED"/>
<path d="M30.3054 31.6239C30.2515 31.45 30.2086 31.2728 30.1768 31.0933C30.1035 30.5768 29.5351 29.3333 25.9435 28.4C21.7945 27.3207 16.943 35.7979 14.1148 32.9712C15.3069 32.7004 16.293 32.4239 15.0649 32.4814C14.6472 32.4979 14.2313 32.5448 13.8202 32.6218C13.5651 32.2629 13.3564 31.8724 13.1992 31.4596C13.1149 31.2491 13.0195 31.0203 12.9337 30.793C14.3499 31.3151 16.5668 32.094 15.1354 31.2898C14.4146 30.8649 13.6251 30.5736 12.8037 30.4295C12.4773 29.4288 12.5506 28.7046 14.8989 30.2526C18.0411 32.3256 17.3883 30.9544 14.2807 27.986C11.5701 25.3979 9.99348 25.6253 10.5024 29.2646C11.5687 36.8716 13.6031 36.1081 17.2085 36.1123C21.1998 36.1235 31.0509 34.2526 30.3054 31.6239Z" fill="black"/>
<path d="M33.1309 31.6239C33.1848 31.45 33.2277 31.2728 33.2595 31.0933C33.3328 30.5768 33.9026 29.3333 37.4928 28.4C41.6418 27.3207 46.4947 35.7979 49.3215 32.9712C48.1294 32.7004 47.1447 32.4239 48.3714 32.4814C48.7891 32.4979 49.205 32.5448 49.6161 32.6218C49.8707 32.2626 50.0793 31.8721 50.2371 31.4596C50.32 31.2491 50.4155 31.0203 50.5026 30.793C49.0864 31.3151 46.8681 32.094 48.3009 31.2898C49.0214 30.8643 49.811 30.5729 50.6326 30.4295C50.959 29.4288 50.8857 28.7046 48.5374 30.2526C45.3938 32.3256 46.048 30.9544 49.1556 27.986C51.8662 25.3979 53.4428 25.6253 52.9325 29.2646C51.8662 36.8716 49.8332 36.1081 46.2278 36.1123C42.2379 36.1235 32.3854 34.2526 33.1309 31.6239Z" fill="black"/>
<path d="M14.5297 11.6239C10.9256 11.5088 8.91751 10.6779 7.60644 18.2456C6.97856 21.8653 8.54825 22.1446 11.3405 19.6491C14.5477 16.7818 15.2405 15.4386 12.032 17.4035C9.63528 18.873 9.58411 18.146 9.94369 17.1579C10.7668 17.0399 11.5629 16.7748 12.2948 16.3747C13.7524 15.6182 11.5106 16.3228 10.082 16.7958C10.176 16.5712 10.2784 16.3453 10.3696 16.1375C10.5401 15.7305 10.7609 15.3471 11.0266 14.9965C11.4364 15.09 11.8524 15.1529 12.2713 15.1846C13.4966 15.2828 12.5202 14.974 11.3377 14.6625C12.9973 13.1074 15.199 15.2407 17.5612 17.1888C16.3801 17.3053 15.4411 17.5677 14.7164 17.9846C13.444 18.7158 12.7996 19.9354 12.7996 21.6098C12.7996 22.4484 12.9623 23.2788 13.2786 24.0536C13.5948 24.8284 14.0583 25.5324 14.6426 26.1254C15.2269 26.7184 15.9206 27.1888 16.6841 27.5097C17.4475 27.8306 18.2658 27.9958 19.0922 27.9958C19.9185 27.9958 20.7368 27.8306 21.5002 27.5097C22.2637 27.1888 22.9574 26.7184 23.5417 26.1254C24.126 25.5324 24.5895 24.8284 24.9058 24.0536C25.222 23.2788 25.3848 22.4484 25.3848 21.6098C25.3848 20.6274 25.1607 19.8035 24.7209 19.1396C26.8397 18.3846 27.2601 17.4919 27.3334 17.0737C27.3678 16.8953 27.414 16.7194 27.4717 16.5474C28.3029 13.9495 18.5155 11.7516 14.5297 11.6239ZM22.4044 19.8596C22.4049 20.1987 22.322 20.5324 22.1631 20.8306C22.0042 21.1288 21.7744 21.382 21.4946 21.5672C21.2148 21.7524 20.8939 21.8638 20.5609 21.8911C20.2279 21.9185 19.8935 21.861 19.588 21.7239C19.2825 21.5868 19.0156 21.3744 18.8115 21.106C18.6074 20.8376 18.4726 20.5217 18.4194 20.1871C18.3661 19.8524 18.3961 19.5095 18.5066 19.1896C18.6171 18.8697 18.8046 18.5828 19.0521 18.3551C20.1584 19.1396 21.2883 19.7137 22.3961 19.6982C22.4031 19.7517 22.4058 19.8057 22.4044 19.8596ZM19.0852 27.2982C17.6003 27.2964 16.1767 26.6969 15.1267 25.6313C14.0767 24.5657 13.486 23.121 13.4841 21.614C13.4841 19.5004 14.6099 18.3312 17.0799 17.9649C16.3575 18.3807 15.7721 19.0037 15.3973 19.7557C15.0224 20.5078 14.8747 21.3555 14.9727 22.1924C15.0708 23.0294 15.4101 23.8183 15.9483 24.4602C16.4864 25.1022 17.1994 25.5685 17.9977 25.8008C18.7961 26.0332 19.6442 26.0211 20.4358 25.7661C21.2274 25.5111 21.9271 25.0245 22.4473 24.3675C22.9674 23.7104 23.2848 22.9121 23.3596 22.0727C23.4344 21.2333 23.2633 20.3902 22.8677 19.6491C22.9147 19.6407 22.9618 19.6351 23.006 19.6253C23.3739 19.5425 23.7086 19.4554 24.017 19.3656C24.4665 19.9411 24.6836 20.6849 24.6836 21.6112C24.6825 23.1182 24.0925 24.5632 23.043 25.6293C21.9935 26.6955 20.5702 27.2956 19.0852 27.2982Z" fill="black"/>
<path d="M27.5215 17.8246C28.3513 17.1228 29.0428 15.8596 28.6279 15.5789C27.2283 14.6316 27.9364 16.2807 27.5215 17.8246Z" fill="black"/>
<path d="M55.4578 18.2456C54.1468 10.6779 52.1387 11.5088 48.5346 11.6239C44.5488 11.7516 34.7614 13.9495 35.5926 16.5516C35.6527 16.7235 35.7013 16.8993 35.7378 17.0779C35.8111 17.4989 36.2315 18.3888 38.3503 19.1439C37.9105 19.8077 37.6864 20.6316 37.6864 21.614C37.6864 23.3077 38.3494 24.932 39.5295 26.1296C40.7096 27.3272 42.3101 28 43.979 28C45.6479 28 47.2485 27.3272 48.4286 26.1296C49.6087 24.932 50.2716 23.3077 50.2716 21.614C50.2716 19.9396 49.6272 18.72 48.3548 17.9888C47.6301 17.5677 46.6952 17.3095 45.51 17.193C47.8694 15.2435 50.0739 13.1102 51.7335 14.6667C50.551 14.9782 49.5746 15.287 50.7999 15.1888C51.2164 15.1563 51.6301 15.0934 52.0377 15.0007C52.302 15.3512 52.5218 15.7341 52.6919 16.1404C52.7831 16.3481 52.8855 16.574 52.9795 16.7986C51.5468 16.3228 49.3049 15.6182 50.7667 16.3775C51.5006 16.7789 52.2991 17.0441 53.1247 17.1607C53.4843 18.1432 53.4332 18.8758 51.0364 17.4063C47.8279 15.4414 48.5208 16.7846 51.7279 19.6519C54.516 22.1446 56.0857 21.8653 55.4578 18.2456ZM49.5801 21.614C49.5801 23.1216 48.99 24.5674 47.9396 25.6334C46.8892 26.6994 45.4645 27.2982 43.979 27.2982C42.4935 27.2982 41.0689 26.6994 40.0185 25.6334C38.9681 24.5674 38.3779 23.1216 38.3779 21.614C38.3779 20.6877 38.5951 19.9439 39.0445 19.3684C39.3529 19.4582 39.6876 19.5453 40.0555 19.6281C41.5879 19.9719 43.1714 19.033 44.7065 17.84C48.0699 17.9832 49.5801 19.1635 49.5801 21.614Z" fill="black"/>
<path d="M35.5428 17.8246C34.713 17.1228 34.0215 15.8596 34.4364 15.5789C35.836 14.6316 35.1279 16.2807 35.5428 17.8246Z" fill="black"/>
<path d="M31.593 27.2926C30.9015 26.4505 29.6568 25.7488 29.3802 26.1698C28.4467 27.5902 30.0717 26.8716 31.593 27.2926Z" fill="black"/>
<path d="M31.7341 27.2926C32.4256 26.4505 33.6702 25.7488 33.9468 26.1698C34.879 27.5902 33.2553 26.8716 31.7341 27.2926Z" fill="black"/>
<path d="M22.0034 60.4912C22.0324 60.4589 19.3079 54.2105 18.976 50.8632C18.8474 49.5761 19.5209 39.8316 17.593 40.873C14.6887 42.4421 15.9818 50.2232 16.9845 53.1116C18.0148 56.0884 22.0034 60.4912 22.0034 60.4912Z" fill="#F5EFED"/>
<path d="M15.9044 59.4849C15.9237 59.447 11.8398 54.2414 10.7168 51.1789C10.2853 49.9958 8.55655 40.6526 6.99654 42.1179C4.63439 44.3228 7.74059 51.3291 9.38911 53.8021C11.0722 56.3382 15.9044 59.4849 15.9044 59.4849Z" fill="#F5EFED"/>
<path d="M40.5216 60.4912C40.4925 60.4589 43.217 54.2105 43.5489 50.8632C43.6776 49.5761 43.004 39.8316 44.9319 40.873C47.8362 42.4421 46.5431 50.2232 45.5404 53.1116C44.5087 56.0884 40.5216 60.4912 40.5216 60.4912Z" fill="#F5EFED"/>
<path d="M46.6261 59.4849C46.6053 59.447 50.6893 54.2414 51.8123 51.1789C52.2438 49.9958 53.9725 40.6526 55.5325 42.1179C57.8947 44.3228 54.7885 51.3291 53.14 53.8021C51.4472 56.3382 46.6261 59.4849 46.6261 59.4849Z" fill="#F5EFED"/>
<path d="M31.6815 54.167C30.5654 54.1137 29.3761 54.1137 28.1895 54.167C26.9448 54.2386 25.8508 53.9916 24.6559 53.6365L24.4692 53.1593C24.5729 52.9811 24.8717 52.8786 25.2022 52.8042C25.546 52.8131 25.89 52.7953 26.2311 52.7509H31.5003C32.2333 52.8042 33.0023 52.8042 33.7131 52.8758C34.424 52.9474 35.2469 52.9291 35.9632 52.9291C36.6374 52.9709 37.2962 53.1514 37.8994 53.4596L38.0751 53.9382C37.9146 54.1117 37.7197 54.2486 37.5032 54.3401C37.2868 54.4315 37.0537 54.4754 36.8193 54.4688H35.1127C34.0008 54.3453 32.7976 54.2386 31.6815 54.167ZM33.6066 52.2793C33.112 52.2084 32.6119 52.1854 32.113 52.2105L28.5878 52.1572L27.5588 52.3354L27.0526 51.7502V51.3193L27.2449 45.5789L27.4012 45.4554C27.7856 45.7025 28.1853 45.5439 28.6458 45.7207C29.1866 45.7558 29.8324 45.8442 30.2861 45.7909C30.4714 45.4021 30.7231 44.9937 30.7231 44.5867C30.322 44.4098 28.9778 44.4098 28.6638 44.4098L26.487 44.3509L26.0527 43.8204V43.5789L26.3833 43.1705L29.7024 43.0456C30.1324 43.0438 30.5602 42.9844 30.9748 42.8688C31.0593 42.6259 31.1059 42.3711 31.1131 42.1137V41.3333L30.9568 40.8561L31.3067 40.8028L32.2665 41.4582C32.4078 41.537 32.518 41.6628 32.5785 41.8144C32.639 41.966 32.646 42.1342 32.5984 42.2905L32.4933 42.6975L32.5625 42.8744C33.0087 42.9181 33.4571 42.9359 33.9053 42.9277C34.2967 42.915 34.6884 42.939 35.0754 42.9993C35.4204 43.0526 35.7519 43.1732 36.0517 43.3544L36.1403 43.7067C36.0745 43.8778 35.9553 44.0224 35.801 44.1184C35.6467 44.2145 35.4657 44.2567 35.2856 44.2386C34.826 44.2831 34.3642 44.3009 33.9026 44.2919C33.4474 44.3057 32.9935 44.347 32.5431 44.4154C32.2634 44.7749 32.0502 45.1829 31.9138 45.6197C32.3163 45.7965 33.7117 45.8849 34.1833 45.9382C34.5669 45.9903 34.9457 46.0738 35.316 46.1881C35.5027 46.5053 35.5027 47.0891 35.5622 47.4512C35.6216 47.8133 35.6313 48.153 35.7005 48.5151C35.7516 48.9082 35.7516 49.3065 35.7005 49.6996C35.5469 50.1608 35.4353 50.6353 35.3672 51.1172C35.3176 51.5751 35.156 52.0132 34.897 52.3916C34.4821 52.3804 33.5983 52.2807 33.5983 52.2807L33.6066 52.2793ZM27.1066 57.3614L26.9835 56.3509C27.0706 56.0687 27.2201 55.8104 27.4205 55.5958C27.6058 55.3488 27.7511 55.1186 27.9073 54.894L28.9031 54.7158C29.217 54.7691 29.6195 54.894 29.95 54.9474C30.2873 55.0273 30.5996 55.1913 30.8586 55.4246L30.9624 55.7796L30.8061 56.1319C30.4726 56.3657 30.1151 56.5619 29.7398 56.7172C29.3528 56.8977 28.9567 57.0574 28.5532 57.1958C28.1577 57.3307 27.7778 57.509 27.4205 57.7277L27.1066 57.3614ZM33.4047 50.1712L32.8515 50.0477C32.5785 50.1252 32.2968 50.1667 32.0134 50.1712C31.7026 50.1585 31.3913 50.1769 31.0841 50.226L28.9224 50.1053C28.7774 50.272 28.6601 50.4616 28.5753 50.6667L33.4683 50.8884L33.4047 50.1712ZM33.3881 49.0737L33.319 48.6835L32.6551 48.6302C32.1504 48.6948 31.6425 48.73 31.1338 48.7354H29.5157L29.1008 48.6835L28.9141 49.0386C29.4138 49.151 29.9237 49.2103 30.4354 49.2154C30.8997 49.2592 31.366 49.277 31.8323 49.2688C32.3282 49.352 32.8301 49.3933 33.3328 49.3923L33.3881 49.0737ZM33.4407 47.426L33.254 47.1789C32.7478 47.1074 32.0093 47.1425 31.7009 47.0891C31.3178 47.0372 30.9153 46.9656 30.5848 46.9123C30.1923 46.8421 29.7907 46.8421 29.3982 46.9123L29.0262 47.1425L28.9197 47.4232C29.3814 47.6099 29.8721 47.7121 30.369 47.7249H31.6704C32.0853 47.7782 32.4919 47.8302 33.171 47.9004L33.4407 47.426ZM35.204 56.9698C34.8087 56.7731 34.4438 56.5187 34.1211 56.2147C33.7998 55.9169 33.4344 55.672 33.0382 55.4891L33.0216 55.1116H34.695C35.1666 55.3011 35.5677 55.5719 35.9674 55.7839C36.3818 56.0185 36.7739 56.2915 37.1388 56.5993L37.2065 56.9881L36.3007 57.4316C35.914 57.3327 35.5443 57.1751 35.204 56.9642V56.9698Z" fill="#F5EFED"/>
<path d="M68.0513 45.8512C67.9554 45.7592 67.8791 45.6482 67.827 45.5251C67.7749 45.402 67.7482 45.2694 67.7485 45.1354V18.6246C67.7398 18.3454 67.8391 18.0739 68.0251 17.8681C68.1174 17.7676 68.2298 17.6882 68.3548 17.6355C68.4798 17.5827 68.6144 17.5577 68.7497 17.5621H79.3352C83.3071 17.5621 86.3935 18.5221 88.5943 20.4421C90.7951 22.3621 91.9475 25.1195 92.0517 28.7144C92.0886 29.5013 92.107 30.5497 92.107 31.8596C92.107 33.1696 92.0937 34.2044 92.0669 34.9642C91.7977 42.4271 87.6248 46.1581 79.5481 46.1572H68.7608C68.6282 46.1582 68.4968 46.1316 68.3748 46.079C68.2527 46.0263 68.1426 45.9488 68.0513 45.8512ZM79.3407 40.0295C81.0316 40.0295 82.2795 39.6211 83.0844 38.8042C83.8893 37.9874 84.319 36.6802 84.3734 34.8828C84.4259 34.0931 84.4527 33.0718 84.4536 31.819C84.4545 30.5661 84.4278 29.5584 84.3734 28.7958C84.3199 27.0545 83.8566 25.768 82.9835 24.9361C82.1103 24.1043 80.8292 23.6889 79.1401 23.6898H75.3162V40.0295H79.3407Z" fill="black"/>
<path d="M90.8333 45.8947C90.7524 45.8195 90.6875 45.7283 90.6426 45.6267C90.5976 45.5251 90.5736 45.4152 90.5719 45.3039C90.5666 45.1799 90.5801 45.0559 90.612 44.9361L99.9901 18.7467C100.258 17.9579 100.795 17.563 101.601 17.5621H107.88C108.685 17.5621 109.222 17.957 109.49 18.7467L118.868 44.9319C118.9 45.0516 118.914 45.1756 118.909 45.2997C118.896 45.523 118.803 45.7336 118.647 45.8917C118.491 46.0497 118.283 46.1442 118.063 46.1572H112.831C112.539 46.1715 112.25 46.0924 112.004 45.931C111.758 45.7696 111.569 45.534 111.462 45.2575L110.013 41.2954H99.4673L98.0179 45.2575C97.9114 45.5339 97.7222 45.7694 97.4768 45.9308C97.2314 46.0922 96.9423 46.1714 96.6502 46.1572H91.4156C91.306 46.156 91.1979 46.132 91.0978 46.0869C90.9976 46.0418 90.9077 45.9764 90.8333 45.8947ZM101.157 35.1719H108.323L104.741 24.7565L101.157 35.1719Z" fill="black"/>
<path d="M119.214 45.8512C119.118 45.7592 119.041 45.6482 118.989 45.5251C118.937 45.402 118.91 45.2694 118.911 45.1354V18.6246C118.902 18.3454 119.001 18.0739 119.187 17.8681C119.28 17.7674 119.392 17.688 119.517 17.6352C119.642 17.5824 119.777 17.5575 119.912 17.5621H130.976C134.518 17.5621 137.289 18.3794 139.288 20.014C141.287 21.6487 142.286 23.9495 142.286 26.9165C142.286 28.8243 141.85 30.4449 140.978 31.7782C140.083 33.1318 138.836 34.2066 137.375 34.8828L142.809 44.8477C142.883 44.9862 142.925 45.1405 142.93 45.2982C142.93 45.5199 142.843 45.7322 142.688 45.8891C142.613 45.9753 142.52 46.0438 142.416 46.0898C142.312 46.1359 142.199 46.1584 142.085 46.1558H136.415C135.636 46.1558 135.086 45.7881 134.765 45.0526L130.34 36.1881H126.476V45.134C126.48 45.2714 126.455 45.408 126.403 45.5349C126.351 45.6617 126.273 45.7758 126.174 45.8695C125.971 46.0582 125.704 46.159 125.429 46.1502H119.915C119.784 46.151 119.655 46.1249 119.534 46.0735C119.414 46.0221 119.305 45.9465 119.214 45.8512ZM130.947 30.1853C132.1 30.1853 132.979 29.8924 133.583 29.3067C134.187 28.7209 134.489 27.9106 134.489 26.8758C134.489 25.8409 134.187 25.0105 133.583 24.3846C132.979 23.7586 132.1 23.4456 130.947 23.4456H126.476V30.1825L130.947 30.1853Z" fill="black"/>
<path d="M146.822 43.7474C144.662 41.8685 143.582 39.0498 143.582 35.2912V18.6246C143.573 18.3454 143.672 18.0739 143.858 17.8681C143.951 17.7676 144.063 17.6882 144.188 17.6355C144.313 17.5827 144.448 17.5577 144.583 17.5621H150.097C150.235 17.5598 150.372 17.5858 150.5 17.6383C150.628 17.6909 150.745 17.7691 150.842 17.8682C150.94 17.9673 151.017 18.0854 151.069 18.2153C151.121 18.3452 151.146 18.4844 151.144 18.6246V35.2098C151.144 36.894 151.54 38.16 152.332 39.0077C153.124 39.8554 154.258 40.2765 155.733 40.2709C157.208 40.2709 158.342 39.8423 159.134 38.9853C159.926 38.1282 160.322 36.8688 160.322 35.207V18.6246C160.319 18.4844 160.345 18.3452 160.397 18.2153C160.449 18.0854 160.526 17.9673 160.623 17.8682C160.721 17.7691 160.837 17.6909 160.965 17.6383C161.093 17.5858 161.23 17.5598 161.369 17.5621H166.842C166.98 17.56 167.117 17.5861 167.245 17.6387C167.373 17.6914 167.49 17.7696 167.587 17.8687C167.685 17.9677 167.762 18.0857 167.814 18.2155C167.866 18.3454 167.891 18.4845 167.889 18.6246V35.2912C167.889 39.0489 166.816 41.8676 164.668 43.7474C162.521 45.6271 159.556 46.5666 155.773 46.5656C151.96 46.5656 148.977 45.6262 146.822 43.7474Z" fill="black"/>
<path d="M170.369 45.8709C170.27 45.7772 170.192 45.6631 170.14 45.5363C170.088 45.4094 170.063 45.2728 170.067 45.1354V18.6246C170.065 18.4844 170.091 18.3452 170.143 18.2153C170.194 18.0854 170.271 17.9673 170.369 17.8682C170.467 17.7691 170.583 17.6909 170.711 17.6383C170.839 17.5858 170.976 17.5598 171.114 17.5621H175.663C175.966 17.5467 176.266 17.6244 176.524 17.7849C176.782 17.9454 176.987 18.1813 177.111 18.4618L184.034 31.0428L190.999 18.4618C191.123 18.1812 191.328 17.9452 191.586 17.7846C191.844 17.6241 192.144 17.5465 192.447 17.5621H196.996C197.134 17.5598 197.271 17.5858 197.399 17.6383C197.527 17.6909 197.643 17.7691 197.741 17.8682C197.839 17.9673 197.916 18.0854 197.967 18.2153C198.019 18.3452 198.045 18.4844 198.043 18.6246V45.1354C198.047 45.2728 198.022 45.4094 197.97 45.5363C197.918 45.6631 197.84 45.7772 197.741 45.8709C197.538 46.0599 197.271 46.1607 196.996 46.1516H191.879C191.614 46.1448 191.361 46.035 191.174 45.8448C190.987 45.6547 190.878 45.3987 190.872 45.1298V30.2667L186.525 38.3551C186.183 38.9839 185.715 39.2982 185.121 39.2982H182.949C182.411 39.2982 181.941 38.9853 181.539 38.3593L177.233 30.2709V45.1354C177.237 45.2729 177.212 45.4097 177.16 45.5366C177.108 45.6635 177.029 45.7775 176.93 45.8709C176.728 46.0598 176.461 46.1606 176.186 46.1516H171.114C170.839 46.1607 170.572 46.0599 170.369 45.8709Z" fill="black"/>
<path d="M196.108 45.9523C196.04 45.8824 195.988 45.7994 195.953 45.7082C195.918 45.6169 195.902 45.5195 195.906 45.4218C195.907 45.2512 195.949 45.0833 196.026 44.9319L211.202 18.5839C211.604 17.9027 212.154 17.5621 212.852 17.5621H217.561C218.26 17.5621 218.662 17.9027 218.769 18.5839L222.954 44.9319C223.008 45.3123 222.954 45.6126 222.775 45.8302C222.69 45.9366 222.582 46.0215 222.46 46.0783C222.338 46.1351 222.204 46.1621 222.069 46.1572H218.568C217.922 46.1572 217.56 45.8437 217.481 45.2168L216.595 40.4379H204.682L201.743 45.3811C201.623 45.6203 201.438 45.82 201.21 45.9573C200.982 46.0946 200.721 46.1639 200.456 46.1572H196.633C196.537 46.1613 196.44 46.1453 196.35 46.11C196.259 46.0748 196.177 46.0211 196.108 45.9523ZM207.096 35.6996H216.193L214.257 23.1186L207.096 35.6996Z" fill="black"/>
<path d="M224.246 45.8709C224.178 45.7706 224.132 45.6567 224.111 45.5369C224.09 45.4171 224.095 45.294 224.124 45.1761L229.68 18.5839C229.726 18.2958 229.873 18.0345 230.095 17.8484C230.315 17.6626 230.594 17.563 230.88 17.5677H241.305C244.151 17.5677 246.344 18.1464 247.887 19.3039C249.429 20.4613 250.201 22.1296 250.201 24.3088C250.194 25.0501 250.114 25.7889 249.96 26.5137C249.557 28.502 248.745 30.1703 247.525 31.5186C246.282 32.8808 244.708 33.8875 242.961 34.4379L246.624 44.8547C246.651 45.0037 246.651 45.1563 246.624 45.3053C246.61 45.4276 246.571 45.5454 246.508 45.651C246.446 45.7565 246.362 45.8473 246.262 45.9172C246.079 46.0683 245.853 46.1546 245.617 46.1628H241.915C241.459 46.1628 241.136 46.0608 240.947 45.8568C240.748 45.6305 240.609 45.356 240.545 45.0596L237.364 35.3754H231.848L229.796 45.1789C229.742 45.4527 229.595 45.6986 229.381 45.8737C229.161 46.0593 228.882 46.1588 228.596 46.1544H224.892C224.77 46.1656 224.646 46.1456 224.533 46.0961C224.421 46.0465 224.322 45.9691 224.246 45.8709ZM238.455 30.713C240.037 30.713 241.305 30.3523 242.258 29.6309C243.211 28.9095 243.836 27.854 244.131 26.4646C244.209 26.0747 244.249 25.6779 244.251 25.28C244.251 24.2742 243.915 23.498 243.244 22.9516C242.573 22.4051 241.567 22.1338 240.225 22.1375H234.591L232.819 30.7158L238.455 30.713Z" fill="black"/>
<path d="M253.364 45.8709C253.29 45.7732 253.24 45.6599 253.216 45.5396C253.192 45.4193 253.195 45.295 253.225 45.1761L257.976 22.6681H250.528C250.408 22.6737 250.287 22.6487 250.178 22.5953C250.069 22.5419 249.975 22.4617 249.905 22.3621C249.832 22.2604 249.782 22.1438 249.758 22.0204C249.734 21.897 249.737 21.7698 249.766 21.6477L250.411 18.5839C250.457 18.2988 250.599 18.0389 250.813 17.8484C251.025 17.6609 251.298 17.5608 251.578 17.5677H272.185C272.306 17.5566 272.429 17.5765 272.541 17.6255C272.653 17.6745 272.752 17.7511 272.828 17.8484C272.896 17.9561 272.943 18.0769 272.964 18.2034C272.985 18.3298 272.98 18.4593 272.949 18.5839L272.31 21.6477C272.263 21.9371 272.112 22.1987 271.887 22.3832C271.68 22.5639 271.416 22.6634 271.143 22.6639H263.736L258.985 45.1719C258.94 45.4561 258.789 45.7119 258.564 45.8863C258.352 46.0583 258.089 46.1524 257.818 46.153H254.034C253.908 46.1636 253.782 46.1435 253.665 46.0945C253.549 46.0454 253.445 45.9687 253.364 45.8709Z" fill="black"/>
<path d="M272.608 45.6253C271.04 44.9993 269.86 44.1572 269.066 43.0989C268.295 42.097 267.876 40.8617 267.878 39.5902C267.888 39.2755 267.914 38.9615 267.958 38.6498C267.989 38.423 268.096 38.2139 268.261 38.0575C268.342 37.9727 268.439 37.9054 268.546 37.8598C268.653 37.8142 268.769 37.7912 268.885 37.7923H272.627C272.874 37.7747 273.12 37.8474 273.319 37.9972C273.495 38.1535 273.632 38.349 273.721 38.5684C273.829 39.4676 274.29 40.2372 275.104 40.8772C275.918 41.5172 277.108 41.833 278.672 41.8246C280.55 41.8246 282.06 41.5046 283.2 40.8646C284.341 40.2246 285.018 39.346 285.233 38.2288C285.277 38.0267 285.303 37.8209 285.311 37.614C285.315 37.3282 285.258 37.0449 285.143 36.7839C285.028 36.5228 284.859 36.2903 284.647 36.1025C284.204 35.6945 283.547 35.3268 282.675 34.9993C281.802 34.6718 280.535 34.2634 278.871 33.774C276.349 33.1481 274.47 32.2835 273.236 31.1804C272.001 30.0772 271.384 28.6405 271.384 26.8702C271.375 26.2094 271.443 25.5499 271.586 24.9053C272.095 22.509 273.362 20.6166 275.389 19.2281C277.416 17.8395 280.039 17.1448 283.258 17.1439C285.244 17.1439 286.975 17.491 288.451 18.1853C289.927 18.8795 291.054 19.7647 291.831 20.8407C292.61 21.9167 293 22.9993 293 24.0884C292.991 24.3353 292.964 24.5811 292.918 24.8239C292.872 25.0554 292.76 25.2682 292.596 25.4358C292.518 25.5165 292.424 25.58 292.32 25.6222C292.216 25.6645 292.105 25.6846 291.993 25.6814H288.089C287.525 25.6814 287.176 25.4363 287.042 24.946C287.068 24.1039 286.692 23.3825 285.915 22.7818C285.138 22.1811 284.13 21.8854 282.892 21.8947C281.388 21.8947 280.14 22.1811 279.148 22.7537C278.679 23.0067 278.27 23.3609 277.951 23.7912C277.631 24.2216 277.408 24.7178 277.298 25.2449C277.251 25.4875 277.224 25.7334 277.216 25.9804C277.216 26.7972 277.646 27.4643 278.505 27.9818C279.364 28.4992 280.867 29.0437 283.013 29.6154C285.857 30.2975 287.936 31.1761 289.252 32.2512C290.568 33.3263 291.225 34.7626 291.224 36.56C291.21 37.1911 291.142 37.8198 291.022 38.4393C290.459 41.1088 289.091 43.1308 286.918 44.5053C284.744 45.8798 281.873 46.5675 278.303 46.5684C276.075 46.5665 274.177 46.2522 272.608 45.6253Z" fill="black"/>
</svg>
