<svg width="487" height="572" viewBox="0 0 487 572" fill="none" xmlns="http://www.w3.org/2000/svg">
<path d="M191.59 18.5H294.41C340.582 18.5 384.862 36.8416 417.51 69.4898C450.158 102.138 468.5 146.418 468.5 192.59V368.89C468.501 382.103 465.9 395.186 460.844 407.393C455.789 419.601 448.378 430.692 439.035 440.035C429.692 449.378 418.601 456.789 406.393 461.844C394.186 466.9 381.103 469.501 367.89 469.5H118.11C104.897 469.501 91.8138 466.9 79.6067 461.844C67.3995 456.789 56.3078 449.378 46.9651 440.035C37.6223 430.692 30.2115 419.601 25.1558 407.393C20.1001 395.186 17.4987 382.103 17.5 368.89V192.59C17.5 146.418 35.8416 102.138 68.4898 69.4898C101.138 36.8416 145.418 18.5 191.59 18.5V18.5Z" fill="#FF8839"/>
<path d="M367.89 472H118.11C90.7733 471.968 64.5653 461.095 45.2353 441.765C25.9053 422.435 15.0318 396.227 15 368.89V192.59C15 95.22 94.22 16 191.59 16H294.41C391.78 16 471 95.22 471 192.59V368.89C470.968 396.227 460.095 422.435 440.765 441.765C421.435 461.095 395.227 471.968 367.89 472V472ZM191.59 21C97 21 20 98 20 192.59V368.89C20.0291 394.901 30.375 419.839 48.7679 438.232C67.1608 456.625 92.0985 466.971 118.11 467H367.89C393.901 466.971 418.839 456.625 437.232 438.232C455.625 419.839 465.971 394.901 466 368.89V192.59C466 98 389 21 294.41 21H191.59Z" fill="#F5EFED"/>
<path d="M372.18 283C339.88 283 291.44 270 243 270C194.56 270 146.12 283 113.82 283C83.27 283 58.5 257 58.5 224.87V163.35C58.5 104.06 104.24 56 160.66 56H325.34C381.76 56 427.5 104.06 427.5 163.35V224.87C427.5 257 402.73 283 372.18 283Z" fill="#F5EFED"/>
<path d="M372.18 285.5C357.48 285.5 339.25 282.8 319.94 279.94C296.29 276.44 269.48 272.47 243 272.47C216.52 272.47 189.71 276.47 166.06 279.94C146.75 282.8 128.52 285.5 113.82 285.5C81.94 285.5 56 258.3 56 224.87V163.35C56 102.78 103 53.5 160.66 53.5H325.34C383.05 53.5 430 102.78 430 163.35V224.87C430 258.3 404.06 285.5 372.18 285.5ZM243 267.47C269.85 267.47 296.85 271.47 320.68 274.99C339.79 277.83 357.85 280.5 372.18 280.5C401.3 280.5 425 255.5 425 224.87V163.35C425 105.54 380.29 58.5 325.34 58.5H160.66C105.71 58.5 61 105.5 61 163.35V224.87C61 255.54 84.7 280.5 113.82 280.5C128.15 280.5 146.21 277.83 165.32 274.99C189.15 271.47 216.15 267.47 243 267.47Z" fill="#252323"/>
<path d="M234.13 241.32C233.74 240.081 233.43 238.818 233.2 237.54C232.67 233.86 228.56 225 202.59 218.35C172.59 210.66 137.51 271.06 117.06 250.92C125.68 248.99 132.81 247.02 123.93 247.43C120.91 247.548 117.902 247.882 114.93 248.43C113.085 245.873 111.577 243.091 110.44 240.15C109.83 238.65 109.14 237.02 108.52 235.4C118.76 239.12 134.79 244.67 124.44 238.94C119.228 235.912 113.519 233.837 107.58 232.81C105.22 225.68 105.75 220.52 122.73 231.55C145.45 246.32 140.73 236.55 118.26 215.4C98.66 196.96 87.26 198.58 90.94 224.51C98.65 278.71 113.36 273.27 139.43 273.3C168.29 273.38 239.52 260.05 234.13 241.32Z" fill="#252323"/>
<path d="M254.56 241.32C254.95 240.081 255.26 238.818 255.49 237.54C256.02 233.86 260.14 225 286.1 218.35C316.1 210.66 351.19 271.06 371.63 250.92C363.01 248.99 355.89 247.02 364.76 247.43C367.78 247.548 370.788 247.882 373.76 248.43C375.601 245.871 377.109 243.089 378.25 240.15C378.85 238.65 379.54 237.02 380.17 235.4C369.93 239.12 353.89 244.67 364.25 238.94C369.46 235.908 375.17 233.832 381.11 232.81C383.47 225.68 382.94 220.52 365.96 231.55C343.23 246.32 347.96 236.55 370.43 215.4C390.03 196.96 401.43 198.58 397.74 224.51C390.03 278.71 375.33 273.27 349.26 273.3C320.41 273.38 249.17 260.05 254.56 241.32Z" fill="#252323"/>
<path d="M120.06 98.82C94.0001 98 79.4801 92.08 70.0001 146C65.4601 171.79 76.8101 173.78 97.0001 156C120.19 135.57 125.2 126 102 140C84.6701 150.47 84.3001 145.29 86.9001 138.25C92.8521 137.41 98.6078 135.52 103.9 132.67C114.44 127.28 98.2301 132.3 87.9001 135.67C88.5801 134.07 89.3201 132.46 89.9801 130.98C91.2127 128.08 92.8088 125.348 94.7301 122.85C97.6932 123.517 100.701 123.964 103.73 124.19C112.59 124.89 105.53 122.69 96.9801 120.47C108.98 109.39 124.9 124.59 141.98 138.47C133.44 139.3 126.65 141.17 121.41 144.14C112.21 149.35 107.55 158.04 107.55 169.97C107.55 175.945 108.727 181.862 111.014 187.382C113.3 192.902 116.652 197.918 120.877 202.143C125.102 206.368 130.118 209.72 135.638 212.007C141.158 214.293 147.075 215.47 153.05 215.47C159.025 215.47 164.942 214.293 170.462 212.007C175.982 209.72 180.998 206.368 185.223 202.143C189.448 197.918 192.8 192.902 195.087 187.382C197.373 181.862 198.55 175.945 198.55 169.97C198.55 162.97 196.93 157.1 193.75 152.37C209.07 146.99 212.11 140.63 212.64 137.65C212.889 136.379 213.223 135.126 213.64 133.9C219.65 115.39 148.88 99.73 120.06 98.82ZM177 157.5C177.004 159.915 176.404 162.293 175.255 164.418C174.106 166.543 172.445 168.347 170.422 169.667C168.398 170.986 166.078 171.779 163.67 171.974C161.263 172.169 158.844 171.76 156.635 170.783C154.426 169.806 152.496 168.292 151.021 166.38C149.545 164.468 148.57 162.217 148.185 159.833C147.8 157.448 148.017 155.005 148.816 152.726C149.615 150.446 150.971 148.403 152.76 146.78C160.76 152.37 168.93 156.46 176.94 156.35C176.99 156.731 177.01 157.116 177 157.5ZM153 210.5C142.263 210.487 131.969 206.216 124.377 198.623C116.785 191.031 112.513 180.737 112.5 170C112.5 154.94 120.64 146.61 138.5 144C133.276 146.962 129.044 151.401 126.333 156.76C123.623 162.118 122.555 168.158 123.264 174.121C123.973 180.084 126.426 185.705 130.318 190.279C134.209 194.853 139.364 198.176 145.137 199.831C150.909 201.486 157.042 201.4 162.765 199.583C168.489 197.766 173.549 194.3 177.31 189.618C181.071 184.937 183.366 179.249 183.907 173.268C184.448 167.287 183.21 161.28 180.35 156C180.69 155.94 181.03 155.9 181.35 155.83C184.01 155.24 186.43 154.62 188.66 153.98C191.91 158.08 193.48 163.38 193.48 169.98C193.472 180.717 189.206 191.013 181.617 198.609C174.029 206.205 163.737 210.481 153 210.5Z" fill="#252323"/>
<path d="M214 143C220 138 225 129 222 127C211.88 120.25 217 132 214 143Z" fill="#252323"/>
<path d="M416 146C406.52 92.08 392 98 365.94 98.82C337.12 99.73 266.35 115.39 272.36 133.93C272.795 135.155 273.146 136.408 273.41 137.68C273.94 140.68 276.98 147.02 292.3 152.4C289.12 157.13 287.5 163 287.5 170C287.5 182.067 292.294 193.64 300.827 202.173C309.36 210.706 320.933 215.5 333 215.5C345.067 215.5 356.641 210.706 365.173 202.173C373.706 193.64 378.5 182.067 378.5 170C378.5 158.07 373.84 149.38 364.64 144.17C359.4 141.17 352.64 139.33 344.07 138.5C361.13 124.61 377.07 109.41 389.07 120.5C380.52 122.72 373.46 124.92 382.32 124.22C385.332 123.988 388.323 123.541 391.27 122.88C393.181 125.377 394.77 128.106 396 131C396.66 132.48 397.4 134.09 398.08 135.69C387.72 132.3 371.51 127.28 382.08 132.69C387.386 135.55 393.16 137.439 399.13 138.27C401.73 145.27 401.36 150.49 384.03 140.02C360.83 126.02 365.84 135.59 389.03 156.02C409.19 173.78 420.54 171.79 416 146ZM373.5 170C373.5 180.741 369.233 191.043 361.638 198.638C354.043 206.233 343.741 210.5 333 210.5C322.259 210.5 311.957 206.233 304.362 198.638C296.767 191.043 292.5 180.741 292.5 170C292.5 163.4 294.07 158.1 297.32 154C299.55 154.64 301.97 155.26 304.63 155.85C315.71 158.3 327.16 151.61 338.26 143.11C362.58 144.13 373.5 152.54 373.5 170Z" fill="#252323"/>
<path d="M272 143C266 138 261 129 264 127C274.12 120.25 269 132 272 143Z" fill="#252323"/>
<path d="M243.44 210.46C238.44 204.46 229.44 199.46 227.44 202.46C220.69 212.58 232.44 207.46 243.44 210.46Z" fill="#252323"/>
<path d="M244.46 210.46C249.46 204.46 258.46 199.46 260.46 202.46C267.2 212.58 255.46 207.46 244.46 210.46Z" fill="#252323"/>
<path d="M174.1 447C174.31 446.77 154.61 402.25 152.21 378.4C151.28 369.23 156.15 299.8 142.21 307.22C121.21 318.4 130.56 373.84 137.81 394.42C145.26 415.63 174.1 447 174.1 447Z" fill="#252323"/>
<path d="M130 439.83C130.14 439.56 100.61 402.47 92.4899 380.65C89.3699 372.22 76.8699 305.65 65.5899 316.09C48.5099 331.8 70.9699 381.72 82.8899 399.34C95.0599 417.41 130 439.83 130 439.83Z" fill="#252323"/>
<path d="M308 447C307.79 446.77 327.49 402.25 329.89 378.4C330.82 369.23 325.95 299.8 339.89 307.22C360.89 318.4 351.54 373.84 344.29 394.42C336.83 415.63 308 447 308 447Z" fill="#252323"/>
<path d="M352.14 439.83C351.99 439.56 381.52 402.47 389.64 380.65C392.76 372.22 405.26 305.65 416.54 316.09C433.62 331.8 411.16 381.72 399.24 399.34C387 417.41 352.14 439.83 352.14 439.83Z" fill="#252323"/>
<path d="M244.08 401.94C236.01 401.56 227.41 401.56 218.83 401.94C209.83 402.45 201.92 400.69 193.28 398.16L191.93 394.76C192.68 393.49 194.84 392.76 197.23 392.23C199.716 392.294 202.203 392.166 204.67 391.85H242.77C248.07 392.23 253.63 392.23 258.77 392.74C263.91 393.25 269.86 393.12 275.04 393.12C279.915 393.417 284.678 394.703 289.04 396.9L290.31 400.31C289.149 401.546 287.74 402.521 286.175 403.173C284.61 403.825 282.925 404.137 281.23 404.09H268.89C260.85 403.21 252.15 402.45 244.08 401.94ZM258 388.49C254.424 387.985 250.807 387.821 247.2 388L221.71 387.62L214.27 388.89L210.61 384.72V381.65L212 340.75L213.13 339.87C215.91 341.63 218.8 340.5 222.13 341.76C226.04 342.01 230.71 342.64 233.99 342.26C235.33 339.49 237.15 336.58 237.15 333.68C234.25 332.42 224.53 332.42 222.26 332.42L206.52 332L203.38 328.22V326.5L205.77 323.59L229.77 322.7C232.879 322.687 235.972 322.264 238.97 321.44C239.581 319.709 239.918 317.894 239.97 316.06V310.5L238.84 307.1L241.37 306.72L248.31 311.39C249.332 311.951 250.129 312.847 250.566 313.928C251.003 315.008 251.054 316.206 250.71 317.32L249.95 320.22L250.45 321.48C253.677 321.791 256.919 321.918 260.16 321.86C262.99 321.77 265.822 321.94 268.62 322.37C271.114 322.75 273.512 323.609 275.68 324.9L276.32 327.41C275.844 328.629 274.983 329.66 273.867 330.344C272.751 331.028 271.442 331.329 270.14 331.2C266.817 331.517 263.478 331.644 260.14 331.58C256.849 331.678 253.566 331.972 250.31 332.46C248.287 335.021 246.746 337.929 245.76 341.04C248.67 342.3 258.76 342.93 262.17 343.31C264.944 343.681 267.683 344.276 270.36 345.09C271.71 347.35 271.71 351.51 272.14 354.09C272.57 356.67 272.64 359.09 273.14 361.67C273.51 364.471 273.51 367.309 273.14 370.11C272.029 373.396 271.223 376.777 270.73 380.21C270.372 383.473 269.203 386.594 267.33 389.29C264.33 389.21 257.94 388.5 257.94 388.5L258 388.49ZM211 424.7L210.11 417.5C210.74 415.49 211.821 413.649 213.27 412.12C214.61 410.36 215.66 408.72 216.79 407.12L223.99 405.85C226.26 406.23 229.17 407.12 231.56 407.5C233.999 408.069 236.257 409.238 238.13 410.9L238.88 413.43L237.75 415.94C235.339 417.605 232.753 419.004 230.04 420.11C227.242 421.396 224.378 422.534 221.46 423.52C218.6 424.481 215.854 425.752 213.27 427.31L211 424.7ZM256.54 373.47L252.54 372.59C250.566 373.142 248.529 373.438 246.48 373.47C244.233 373.38 241.982 373.51 239.76 373.86L224.13 373C223.081 374.188 222.233 375.539 221.62 377L257 378.58L256.54 373.47ZM256.42 365.65L255.92 362.87L251.12 362.49C247.471 362.951 243.798 363.201 240.12 363.24H228.42L225.42 362.87L224.07 365.4C227.683 366.201 231.369 366.623 235.07 366.66C238.427 366.972 241.799 367.099 245.17 367.04C248.756 367.633 252.385 367.927 256.02 367.92L256.42 365.65ZM256.8 353.91L255.45 352.15C251.79 351.64 246.45 351.89 244.22 351.51C241.45 351.14 238.54 350.63 236.15 350.25C233.312 349.75 230.408 349.75 227.57 350.25L224.88 351.89L224.11 353.89C227.449 355.221 230.997 355.948 234.59 356.04H244C247 356.42 249.94 356.79 254.85 357.29L256.8 353.91ZM269.55 421.91C266.692 420.508 264.054 418.696 261.72 416.53C259.397 414.408 256.754 412.663 253.89 411.36L253.77 408.67H265.87C269.28 410.02 272.18 411.95 275.07 413.46C278.066 415.132 280.902 417.077 283.54 419.27L284.03 422.04L277.48 425.2C274.684 424.495 272.011 423.373 269.55 421.87V421.91Z" fill="#252323"/>
<path d="M15.6101 557.38C15.2344 557.017 15.0154 556.522 15.0001 556V503.07C14.9846 502.511 15.1894 501.969 15.5701 501.56C15.7567 501.373 15.9802 501.226 16.2263 501.13C16.4725 501.034 16.7359 500.989 17.0001 501H38.4701C46.5101 501 52.7567 502.913 57.2101 506.74C61.6634 510.567 63.9967 516.067 64.2101 523.24C64.2567 524.82 64.2834 526.913 64.2901 529.52C64.2967 532.127 64.2701 534.19 64.2101 535.71C63.6701 550.57 55.2267 558 38.8801 558H17.0001C16.4731 557.985 15.9736 557.762 15.6101 557.38V557.38ZM38.4701 545.77C41.8901 545.77 44.4167 544.953 46.0501 543.32C47.6801 541.69 48.5401 539.08 48.6501 535.5C48.7601 533.92 48.8201 531.89 48.8201 529.39C48.8201 526.89 48.7601 524.88 48.6501 523.39C48.5401 519.91 47.6501 517.34 45.8401 515.69C44.0301 514.04 41.4801 513.2 38.0601 513.2H30.3201V545.8L38.4701 545.77Z" fill="#F5EFED"/>
<path d="M61.7299 557.46C61.5667 557.309 61.4356 557.127 61.3445 556.924C61.2534 556.721 61.2042 556.502 61.1999 556.28C61.1897 556.03 61.2201 555.78 61.2899 555.54L80.2899 503.31C80.4867 502.614 80.9149 502.006 81.504 501.586C82.093 501.166 82.8077 500.959 83.5299 501H96.2399C96.9721 500.957 97.6967 501.169 98.2908 501.599C98.8849 502.029 99.3121 502.651 99.4999 503.36L118.5 555.59C118.561 555.832 118.587 556.081 118.58 556.33C118.554 556.775 118.365 557.195 118.05 557.51C117.735 557.825 117.315 558.014 116.87 558.04H106.27C105.678 558.069 105.091 557.911 104.594 557.588C104.096 557.265 103.714 556.793 103.5 556.24L100.56 548.34H79.2099L76.2799 556.24C76.0649 556.792 75.6818 557.263 75.1848 557.586C74.6878 557.909 74.102 558.068 73.5099 558.04H62.9199C62.6925 558.03 62.4697 557.973 62.265 557.873C62.0604 557.773 61.8783 557.633 61.7299 557.46V557.46ZM82.6299 536.07H97.1399L89.8899 515.29L82.6299 536.07Z" fill="#F5EFED"/>
<path d="M119.18 557.38C118.988 557.194 118.835 556.972 118.73 556.727C118.626 556.481 118.571 556.217 118.57 555.95V503.07C118.554 502.511 118.759 501.969 119.14 501.56C119.327 501.359 119.555 501.2 119.808 501.095C120.062 500.989 120.335 500.94 120.61 500.95H143C150.167 500.95 155.773 502.58 159.82 505.84C163.867 509.1 165.89 513.69 165.89 519.61C165.995 523.031 165.076 526.405 163.25 529.3C161.438 532.004 158.911 534.15 155.95 535.5L166.95 555.38C167.103 555.656 167.189 555.965 167.2 556.28C167.193 556.721 167.018 557.144 166.71 557.46C166.556 557.631 166.368 557.766 166.158 557.858C165.947 557.949 165.719 557.994 165.49 557.99H154C153.282 558.023 152.572 557.828 151.972 557.433C151.372 557.038 150.913 556.463 150.66 555.79L141.66 538.1H133.84V556C133.85 556.274 133.801 556.548 133.695 556.802C133.59 557.055 133.431 557.283 133.23 557.47C132.821 557.851 132.279 558.055 131.72 558.04H120.61C120.339 558.032 120.073 557.97 119.827 557.857C119.581 557.743 119.361 557.581 119.18 557.38ZM142.93 526.13C144.872 526.266 146.789 525.634 148.27 524.37C148.898 523.737 149.387 522.979 149.704 522.145C150.021 521.312 150.159 520.421 150.11 519.53C150.155 518.616 150.015 517.702 149.699 516.843C149.383 515.984 148.897 515.197 148.27 514.53C147.555 513.869 146.713 513.361 145.794 513.037C144.876 512.714 143.901 512.582 142.93 512.65H133.93V526.1L142.93 526.13Z" fill="#F5EFED"/>
<path d="M175.08 553.18C170.707 549.433 168.52 543.81 168.52 536.31V503.07C168.505 502.511 168.709 501.969 169.09 501.56C169.277 501.359 169.505 501.2 169.759 501.095C170.012 500.989 170.286 500.94 170.56 500.95H181.72C182 500.945 182.278 500.996 182.538 501.1C182.797 501.205 183.033 501.361 183.231 501.559C183.429 501.757 183.585 501.993 183.69 502.252C183.794 502.512 183.846 502.79 183.84 503.07V536.15C183.84 539.52 184.64 542.04 186.24 543.73C187.84 545.42 190.14 546.25 193.13 546.25C196.12 546.25 198.41 545.4 200.02 543.69C201.63 541.98 202.42 539.46 202.42 536.15V503.07C202.415 502.79 202.466 502.512 202.57 502.252C202.675 501.993 202.831 501.757 203.029 501.559C203.227 501.361 203.463 501.205 203.722 501.1C203.982 500.996 204.26 500.945 204.54 500.95H215.62C215.9 500.945 216.178 500.996 216.438 501.1C216.697 501.205 216.933 501.361 217.131 501.559C217.329 501.757 217.485 501.993 217.59 502.252C217.694 502.512 217.746 502.79 217.74 503.07V536.31C217.74 543.81 215.567 549.433 211.22 553.18C206.873 556.927 200.873 558.8 193.22 558.8C185.507 558.8 179.46 556.927 175.08 553.18Z" fill="#F5EFED"/>
<path d="M222.75 557.42C222.549 557.233 222.39 557.005 222.285 556.752C222.179 556.498 222.13 556.225 222.14 555.95V503.07C222.135 502.79 222.186 502.512 222.29 502.252C222.395 501.993 222.551 501.757 222.749 501.559C222.947 501.361 223.183 501.205 223.442 501.1C223.702 500.996 223.98 500.945 224.26 500.95H233.47C234.081 500.921 234.687 501.076 235.21 501.395C235.732 501.714 236.147 502.183 236.4 502.74L250.4 527.84L264.49 502.74C264.744 502.181 265.16 501.712 265.684 501.392C266.209 501.073 266.817 500.919 267.43 500.95H276.63C276.91 500.945 277.188 500.996 277.448 501.1C277.707 501.205 277.943 501.361 278.141 501.559C278.339 501.757 278.495 501.993 278.6 502.252C278.704 502.512 278.755 502.79 278.75 503.07V556C278.76 556.274 278.711 556.548 278.605 556.802C278.5 557.055 278.341 557.283 278.14 557.47C277.731 557.851 277.189 558.055 276.63 558.04H266.31C266.043 558.039 265.779 557.984 265.533 557.88C265.288 557.775 265.066 557.622 264.88 557.43C264.688 557.244 264.535 557.022 264.43 556.777C264.326 556.531 264.271 556.267 264.27 556V526.29L255.47 542.42C255.22 542.97 254.82 543.438 254.316 543.77C253.811 544.103 253.224 544.286 252.62 544.3H248.21C247.613 544.259 247.037 544.064 246.538 543.735C246.038 543.405 245.633 542.952 245.36 542.42L236.64 526.29V556C236.65 556.274 236.601 556.548 236.495 556.802C236.39 557.055 236.231 557.283 236.03 557.47C235.625 557.85 235.085 558.055 234.53 558.04H224.26C223.98 558.041 223.702 557.987 223.443 557.88C223.184 557.774 222.949 557.618 222.75 557.42V557.42Z" fill="#F5EFED"/>
<path d="M274.86 557.58C274.723 557.441 274.616 557.275 274.545 557.092C274.475 556.91 274.442 556.715 274.45 556.52C274.449 556.171 274.535 555.827 274.7 555.52L305.42 503C305.74 502.393 306.221 501.885 306.81 501.533C307.399 501.18 308.074 500.996 308.76 501H318.29C318.583 500.967 318.879 500.993 319.162 501.076C319.445 501.159 319.708 501.298 319.936 501.484C320.165 501.67 320.353 501.9 320.491 502.161C320.629 502.421 320.714 502.706 320.74 503L329.21 555.56C329.279 555.869 329.282 556.188 329.22 556.498C329.158 556.808 329.032 557.102 328.85 557.36C328.678 557.571 328.459 557.74 328.211 557.852C327.963 557.965 327.692 558.019 327.42 558.01H320.33C320.061 558.037 319.789 558.01 319.531 557.929C319.273 557.849 319.033 557.717 318.828 557.541C318.622 557.365 318.454 557.149 318.334 556.907C318.214 556.664 318.145 556.4 318.13 556.13L316.34 546.6H292.22L286.22 556.46C285.974 556.937 285.599 557.336 285.138 557.61C284.676 557.884 284.147 558.023 283.61 558.01H275.87C275.49 558.005 275.127 557.85 274.86 557.58ZM297.11 537.13H315.52L311.61 512L297.11 537.13Z" fill="#F5EFED"/>
<path d="M331.82 557.42C331.684 557.218 331.592 556.99 331.551 556.751C331.51 556.511 331.519 556.266 331.58 556.03L342.82 503.03C342.917 502.454 343.223 501.934 343.68 501.57C344.124 501.195 344.689 500.993 345.27 501H366.37C372.13 501 376.57 502.153 379.69 504.46C382.81 506.767 384.373 510.1 384.38 514.46C384.369 515.94 384.205 517.414 383.89 518.86C383.206 522.586 381.499 526.048 378.96 528.86C376.444 531.584 373.253 533.595 369.71 534.69L377.13 555.47C377.18 555.768 377.18 556.072 377.13 556.37C377.1 556.614 377.018 556.849 376.891 557.059C376.763 557.27 376.593 557.451 376.39 557.59C376.021 557.889 375.565 558.061 375.09 558.08H367.59C367.241 558.115 366.888 558.079 366.553 557.974C366.218 557.869 365.907 557.698 365.64 557.47C365.239 557.016 364.957 556.47 364.82 555.88L358.38 536.57H347.22L343.07 556C342.957 556.551 342.652 557.043 342.21 557.39C341.766 557.765 341.201 557.967 340.62 557.96H333.12C332.876 557.984 332.629 557.947 332.402 557.853C332.175 557.759 331.975 557.61 331.82 557.42ZM360.59 527.19C363.323 527.327 366.027 526.568 368.29 525.03C370.29 523.463 371.64 521.212 372.08 518.71C372.237 517.933 372.317 517.143 372.32 516.35C372.374 515.472 372.221 514.595 371.873 513.787C371.526 512.98 370.994 512.265 370.32 511.7C368.96 510.62 366.93 510.07 364.21 510.07H352.76L349.18 527.19H360.59Z" fill="#F5EFED"/>
<path d="M390.78 557.42C390.629 557.226 390.525 556.999 390.475 556.758C390.424 556.518 390.43 556.269 390.49 556.03L400.11 511.13H385C384.756 511.141 384.513 511.091 384.293 510.985C384.073 510.878 383.883 510.718 383.74 510.52C383.591 510.319 383.488 510.087 383.438 509.842C383.388 509.597 383.392 509.344 383.45 509.1L384.76 502.98C384.855 502.415 385.141 501.9 385.57 501.52C385.997 501.143 386.55 500.94 387.12 500.95H428.84C429.088 500.929 429.338 500.971 429.567 501.07C429.795 501.17 429.996 501.324 430.15 501.52C430.288 501.734 430.381 501.974 430.422 502.225C430.464 502.476 430.453 502.733 430.39 502.98L429.09 509.1C428.989 509.674 428.683 510.193 428.23 510.56C427.812 510.925 427.275 511.128 426.72 511.13H411.72L402.14 556C402.052 556.568 401.747 557.081 401.29 557.43C400.86 557.77 400.328 557.957 399.78 557.96H392.12C391.87 557.983 391.618 557.946 391.385 557.852C391.152 557.758 390.944 557.61 390.78 557.42Z" fill="#F5EFED"/>
<path d="M429.73 556.93C426.925 555.955 424.444 554.225 422.56 551.93C420.996 549.932 420.147 547.467 420.15 544.93C420.15 544.55 420.21 543.93 420.31 543.05C420.376 542.597 420.595 542.181 420.93 541.87C421.093 541.7 421.288 541.566 421.505 541.474C421.722 541.383 421.955 541.338 422.19 541.34H429.77C430.264 541.31 430.753 541.455 431.15 541.75C431.51 542.06 431.791 542.451 431.97 542.89C432.095 543.811 432.409 544.696 432.892 545.489C433.376 546.283 434.019 546.967 434.78 547.5C436.44 548.767 438.843 549.403 441.99 549.41C445.158 549.549 448.311 548.892 451.16 547.5C452.202 546.996 453.114 546.26 453.827 545.348C454.54 544.436 455.033 543.373 455.27 542.24C455.363 541.839 455.42 541.431 455.44 541.02C455.446 540.452 455.328 539.89 455.095 539.372C454.862 538.854 454.519 538.392 454.09 538.02C452.904 537.046 451.548 536.3 450.09 535.82C448.32 535.17 445.76 534.36 442.39 533.38C437.283 532.133 433.48 530.407 430.98 528.2C429.755 527.137 428.783 525.815 428.135 524.329C427.486 522.843 427.177 521.231 427.23 519.61C427.216 518.292 427.353 516.977 427.64 515.69C428.109 513.387 429.031 511.2 430.353 509.256C431.675 507.313 433.37 505.652 435.34 504.37C439.44 501.597 444.75 500.21 451.27 500.21C454.883 500.126 458.471 500.836 461.78 502.29C464.478 503.444 466.836 505.268 468.63 507.59C470.087 509.417 470.918 511.665 471 514C470.984 514.49 470.931 514.978 470.84 515.46C470.745 515.921 470.519 516.344 470.19 516.68C470.029 516.841 469.837 516.968 469.626 517.052C469.414 517.136 469.188 517.176 468.96 517.17H461.06C460.591 517.215 460.122 517.094 459.734 516.826C459.346 516.559 459.065 516.164 458.94 515.71C458.954 514.856 458.752 514.013 458.353 513.258C457.955 512.503 457.372 511.861 456.66 511.39C454.88 510.129 452.73 509.495 450.55 509.59C447.927 509.493 445.325 510.083 443 511.3C442.047 511.808 441.217 512.519 440.569 513.383C439.921 514.247 439.471 515.243 439.25 516.3C439.159 516.782 439.106 517.27 439.09 517.76C439.116 518.601 439.373 519.418 439.831 520.123C440.289 520.829 440.932 521.395 441.69 521.76C444.588 523.217 447.655 524.311 450.82 525.02C456.58 526.37 460.82 528.13 463.45 530.27C464.745 531.289 465.783 532.598 466.478 534.092C467.172 535.586 467.506 537.223 467.45 538.87C467.423 540.129 467.289 541.384 467.05 542.62C466.586 545.105 465.607 547.466 464.176 549.55C462.745 551.634 460.893 553.395 458.74 554.72C454.34 557.46 448.527 558.83 441.3 558.83C437.358 558.926 433.434 558.282 429.73 556.93V556.93Z" fill="#F5EFED"/>
</svg>
