<svg width="321" height="72" viewBox="0 0 321 72" fill="none" xmlns="http://www.w3.org/2000/svg">
<path d="M28.3837 2.74072H43.6163C50.4565 2.74072 57.0166 5.45799 61.8534 10.2948C66.6901 15.1315 69.4074 21.6916 69.4074 28.5318V54.6504C69.4076 56.6078 69.0222 58.5461 68.2732 60.3546C67.5242 62.163 66.4263 63.8062 65.0422 65.1903C63.6581 66.5745 62.0149 67.6724 60.2064 68.4214C58.398 69.1703 56.4597 69.5557 54.5022 69.5555H17.4978C15.5403 69.5557 13.602 69.1703 11.7936 68.4214C9.98511 67.6724 8.3419 66.5745 6.95778 65.1903C5.57367 63.8062 4.47577 62.163 3.72678 60.3546C2.9778 58.5461 2.5924 56.6078 2.59259 54.6504V28.5318C2.59259 21.6916 5.30986 15.1315 10.1466 10.2948C14.9834 5.45799 21.5435 2.74072 28.3837 2.74072Z" fill="#252323"/>
<path d="M54.5022 69.9259H17.4978C13.4479 69.9212 9.56524 68.3103 6.70153 65.4466C3.83783 62.5829 2.22693 58.7002 2.22223 54.6504V28.5318C2.22223 14.1067 13.9585 2.37036 28.3837 2.37036H43.6163C58.0415 2.37036 69.7778 14.1067 69.7778 28.5318V54.6504C69.7731 58.7002 68.1622 62.5829 65.2985 65.4466C62.4348 68.3103 58.5521 69.9212 54.5022 69.9259ZM28.3837 3.1111C14.3704 3.1111 2.96297 14.5185 2.96297 28.5318V54.6504C2.96728 58.5039 4.50001 62.1984 7.22488 64.9233C9.94975 67.6481 13.6442 69.1809 17.4978 69.1852H54.5022C58.3558 69.1809 62.0503 67.6481 64.7751 64.9233C67.5 62.1984 69.0327 58.5039 69.037 54.6504V28.5318C69.037 14.5185 57.6296 3.1111 43.6163 3.1111H28.3837Z" fill="#252323"/>
<path d="M55.1378 41.9259C50.3526 41.9259 43.1763 40 36 40C28.8237 40 21.6474 41.9259 16.8622 41.9259C12.3363 41.9259 8.66669 38.074 8.66669 33.314V24.2C8.66669 15.4163 15.443 8.29626 23.8015 8.29626H48.1985C56.5571 8.29626 63.3334 15.4163 63.3334 24.2V33.314C63.3334 38.074 59.6637 41.9259 55.1378 41.9259Z" fill="#F5EFED"/>
<path d="M55.1378 42.2963C52.96 42.2963 50.2593 41.8963 47.3985 41.4726C43.8948 40.9541 39.923 40.3659 36 40.3659C32.0771 40.3659 28.1052 40.9585 24.6015 41.4726C21.7408 41.8963 19.04 42.2963 16.8623 42.2963C12.1393 42.2963 8.29633 38.2666 8.29633 33.3141V24.2C8.29633 15.2266 15.2593 7.9259 23.8015 7.9259H48.1985C56.7482 7.9259 63.7037 15.2266 63.7037 24.2V33.3141C63.7037 38.2666 59.8608 42.2963 55.1378 42.2963ZM36 39.6252C39.9778 39.6252 43.9778 40.2178 47.5082 40.7392C50.3393 41.16 53.0148 41.5555 55.1378 41.5555C59.4519 41.5555 62.963 37.8518 62.963 33.3141V24.2C62.963 15.6355 56.3393 8.66664 48.1985 8.66664H23.8015C15.6608 8.66664 9.03707 15.6296 9.03707 24.2V33.3141C9.03707 37.8578 12.5482 41.5555 16.8623 41.5555C18.9852 41.5555 21.6608 41.16 24.4919 40.7392C28.0223 40.2178 32.0223 39.6252 36 39.6252Z" fill="#F5EFED"/>
<path d="M34.6859 35.7511C34.6282 35.5675 34.5821 35.3805 34.5481 35.1911C34.4696 34.6459 33.8607 33.3333 30.0133 32.3481C25.5689 31.2089 20.3718 40.157 17.3422 37.1733C18.6192 36.8874 19.6755 36.5955 18.36 36.6563C17.9126 36.6737 17.467 36.7232 17.0266 36.8044C16.7534 36.4256 16.5298 36.0134 16.3615 35.5777C16.2711 35.3555 16.1689 35.114 16.077 34.874C17.594 35.4252 19.9689 36.2474 18.4355 35.3985C17.6634 34.95 16.8176 34.6425 15.9378 34.4903C15.5881 33.434 15.6666 32.6696 18.1822 34.3037C21.5481 36.4918 20.8489 35.0444 17.52 31.9111C14.6163 29.1792 12.9274 29.4192 13.4726 33.2607C14.6148 41.2903 16.794 40.4844 20.6563 40.4889C24.9318 40.5007 35.4844 38.5259 34.6859 35.7511Z" fill="#252323"/>
<path d="M37.7126 35.7511C37.7703 35.5675 37.8164 35.3805 37.8504 35.1911C37.9289 34.6459 38.5393 33.3333 42.3852 32.3481C46.8296 31.2089 52.0282 40.157 55.0563 37.1733C53.7793 36.8874 52.7245 36.5955 54.0385 36.6563C54.4859 36.6737 54.9315 36.7232 55.3719 36.8044C55.6446 36.4253 55.8681 36.0131 56.0371 35.5777C56.1259 35.3555 56.2282 35.114 56.3215 34.874C54.8045 35.4252 52.4282 36.2474 53.963 35.3985C54.7348 34.9493 55.5807 34.6418 56.4608 34.4903C56.8104 33.434 56.7319 32.6696 54.2163 34.3037C50.8489 36.4918 51.5496 35.0444 54.8785 31.9111C57.7822 29.1792 59.4711 29.4192 58.9245 33.2607C57.7822 41.2903 55.6045 40.4844 51.7422 40.4889C47.4682 40.5007 36.9141 38.5259 37.7126 35.7511Z" fill="#252323"/>
<path d="M17.7866 14.64C13.9259 14.5185 11.7748 13.6415 10.3703 21.6296C9.69776 25.4504 11.3792 25.7452 14.3703 23.1111C17.8059 20.0845 18.5481 18.6667 15.1111 20.7407C12.5437 22.2919 12.4889 21.5245 12.8741 20.4815C13.7558 20.357 14.6085 20.0771 15.3926 19.6548C16.9541 18.8563 14.5526 19.6 13.0222 20.0993C13.1229 19.8622 13.2326 19.6237 13.3303 19.4045C13.513 18.9748 13.7494 18.5701 14.0341 18.2C14.473 18.2988 14.9187 18.3651 15.3674 18.3985C16.68 18.5022 15.6341 18.1763 14.3674 17.8474C16.1452 16.2059 18.5037 18.4578 21.0341 20.5141C19.7689 20.637 18.7629 20.9141 17.9866 21.3541C16.6237 22.1259 15.9333 23.4133 15.9333 25.1807C15.9333 26.066 16.1077 26.9425 16.4464 27.7603C16.7852 28.5781 17.2817 29.3212 17.9076 29.9472C18.5336 30.5731 19.2767 31.0696 20.0945 31.4084C20.9123 31.7471 21.7888 31.9215 22.6741 31.9215C23.5593 31.9215 24.4358 31.7471 25.2536 31.4084C26.0714 31.0696 26.8145 30.5731 27.4405 29.9472C28.0664 29.3212 28.5629 28.5781 28.9017 27.7603C29.2404 26.9425 29.4148 26.066 29.4148 25.1807C29.4148 24.1437 29.1748 23.2741 28.7037 22.5733C30.9733 21.7763 31.4237 20.8341 31.5022 20.3926C31.539 20.2043 31.5885 20.0187 31.6504 19.837C32.5407 17.0948 22.0563 14.7748 17.7866 14.64ZM26.2222 23.3333C26.2227 23.6912 26.1339 24.0435 25.9637 24.3583C25.7935 24.673 25.5473 24.9403 25.2476 25.1358C24.9479 25.3313 24.6041 25.4488 24.2474 25.4777C23.8907 25.5066 23.5325 25.4459 23.2052 25.3011C22.878 25.1564 22.592 24.9322 22.3734 24.6489C22.1548 24.3656 22.0104 24.0322 21.9534 23.6789C21.8963 23.3257 21.9285 22.9638 22.0468 22.6261C22.1652 22.2884 22.366 21.9856 22.6311 21.7452C23.8163 22.5733 25.0266 23.1793 26.2133 23.163C26.2207 23.2194 26.2237 23.2764 26.2222 23.3333ZM22.6666 31.1852C21.0759 31.1832 19.551 30.5505 18.4262 29.4257C17.3014 28.3009 16.6686 26.7759 16.6666 25.1852C16.6666 22.9541 17.8726 21.72 20.5185 21.3333C19.7446 21.7722 19.1176 22.4298 18.716 23.2237C18.3145 24.0175 18.1563 24.9123 18.2613 25.7957C18.3663 26.6791 18.7298 27.5119 19.3063 28.1895C19.8828 28.8671 20.6465 29.3594 21.5017 29.6046C22.3569 29.8498 23.2654 29.837 24.1134 29.5679C24.9613 29.2987 25.7109 28.7851 26.2681 28.0916C26.8253 27.398 27.1653 26.5554 27.2454 25.6694C27.3255 24.7833 27.1422 23.8934 26.7185 23.1111C26.7689 23.1022 26.8192 23.0963 26.8666 23.0859C27.2607 22.9985 27.6192 22.9067 27.9496 22.8119C28.4311 23.4193 28.6637 24.2045 28.6637 25.1822C28.6625 26.7729 28.0305 28.2982 26.9063 29.4236C25.782 30.5489 24.2573 31.1824 22.6666 31.1852Z" fill="#252323"/>
<path d="M31.7037 21.1852C32.5926 20.4444 33.3334 19.1111 32.8889 18.8148C31.3897 17.8148 32.1482 19.5555 31.7037 21.1852Z" fill="#252323"/>
<path d="M61.6296 21.6296C60.2252 13.6415 58.0741 14.5185 54.2133 14.64C49.9437 14.7748 39.4593 17.0948 40.3496 19.8415C40.4141 20.0229 40.466 20.2085 40.5052 20.397C40.5837 20.8415 41.0341 21.7807 43.3037 22.5778C42.8326 23.2785 42.5926 24.1482 42.5926 25.1852C42.5926 26.9729 43.3028 28.6875 44.5669 29.9516C45.8311 31.2157 47.5456 31.9259 49.3333 31.9259C51.1211 31.9259 52.8356 31.2157 54.0998 29.9516C55.3639 28.6875 56.0741 26.9729 56.0741 25.1852C56.0741 23.4178 55.3837 22.1304 54.0208 21.3585C53.2445 20.9141 52.243 20.6415 50.9733 20.5185C53.5008 18.4607 55.8622 16.2089 57.64 17.8519C56.3733 18.1808 55.3274 18.5067 56.64 18.403C57.0862 18.3687 57.5293 18.3023 57.9659 18.2045C58.2491 18.5744 58.4845 18.9786 58.6667 19.4074C58.7645 19.6267 58.8741 19.8652 58.9748 20.1022C57.44 19.6 55.0385 18.8563 56.6045 19.6578C57.3905 20.0814 58.2459 20.3614 59.1304 20.4845C59.5156 21.5215 59.4608 22.2948 56.8933 20.7437C53.4563 18.6696 54.1985 20.0874 57.6341 23.1141C60.6208 25.7452 62.3022 25.4504 61.6296 21.6296ZM55.3333 25.1852C55.3333 26.7765 54.7012 28.3026 53.576 29.4278C52.4508 30.5531 50.9246 31.1852 49.3333 31.1852C47.742 31.1852 46.2159 30.5531 45.0907 29.4278C43.9655 28.3026 43.3333 26.7765 43.3333 25.1852C43.3333 24.2074 43.5659 23.4222 44.0474 22.8148C44.3778 22.9096 44.7363 23.0015 45.1304 23.0889C46.7719 23.4519 48.4682 22.4607 50.1126 21.2015C53.7156 21.3526 55.3333 22.5985 55.3333 25.1852Z" fill="#252323"/>
<path d="M40.2963 21.1852C39.4074 20.4444 38.6667 19.1111 39.1111 18.8148C40.6104 17.8148 39.8519 19.5555 40.2963 21.1852Z" fill="#252323"/>
<path d="M36.0652 31.1792C35.3244 30.2904 33.9911 29.5496 33.6948 29.9941C32.6948 31.4933 34.4355 30.7348 36.0652 31.1792Z" fill="#252323"/>
<path d="M36.2163 31.1792C36.957 30.2904 38.2904 29.5496 38.5867 29.9941C39.5852 31.4933 37.8459 30.7348 36.2163 31.1792Z" fill="#252323"/>
<path d="M25.7926 66.2222C25.8237 66.1881 22.9052 59.5926 22.5497 56.0592C22.4119 54.7007 23.1334 44.4148 21.0682 45.5141C17.9571 47.1704 19.3422 55.3837 20.4163 58.4326C21.52 61.5748 25.7926 66.2222 25.7926 66.2222Z" fill="#F5EFED"/>
<path d="M19.2592 65.16C19.28 65.12 14.9052 59.6252 13.7022 56.3926C13.24 55.1437 11.3881 45.2815 9.71701 46.8282C7.18664 49.1556 10.5141 56.5512 12.28 59.1615C14.0829 61.8386 19.2592 65.16 19.2592 65.16Z" fill="#F5EFED"/>
<path d="M45.6296 66.2222C45.5985 66.1881 48.5171 59.5926 48.8726 56.0592C49.0104 54.7007 48.2889 44.4148 50.3541 45.5141C53.4652 47.1704 52.08 55.3837 51.0059 58.4326C49.9008 61.5748 45.6296 66.2222 45.6296 66.2222Z" fill="#F5EFED"/>
<path d="M52.1689 65.16C52.1467 65.12 56.5215 59.6252 57.7245 56.3926C58.1867 55.1437 60.0385 45.2815 61.7096 46.8282C64.24 49.1556 60.9126 56.5512 59.1467 59.1615C57.3333 61.8386 52.1689 65.16 52.1689 65.16Z" fill="#F5EFED"/>
<path d="M36.16 59.5466C34.9645 59.4903 33.6904 59.4903 32.4193 59.5466C31.0859 59.6222 29.9141 59.3614 28.6341 58.9866L28.4341 58.4829C28.5452 58.2948 28.8652 58.1866 29.2193 58.1081C29.5876 58.1175 29.9561 58.0987 30.3215 58.0518H35.9659C36.7511 58.1081 37.5748 58.1081 38.3363 58.1836C39.0978 58.2592 39.9793 58.2399 40.7467 58.2399C41.4689 58.284 42.1745 58.4745 42.8208 58.7999L43.0089 59.3051C42.837 59.4882 42.6282 59.6328 42.3963 59.7293C42.1645 59.8258 41.9148 59.8721 41.6637 59.8651H39.8356C38.6445 59.7348 37.3556 59.6222 36.16 59.5466ZM38.2222 57.554C37.6924 57.4792 37.1567 57.4549 36.6222 57.4814L32.8459 57.4251L31.7437 57.6133L31.2015 56.9955V56.5407L31.4074 50.4814L31.5748 50.3511C31.9867 50.6118 32.4148 50.4444 32.9082 50.6311C33.4874 50.6681 34.1793 50.7614 34.6652 50.7051C34.8637 50.2948 35.1333 49.8636 35.1333 49.434C34.7037 49.2473 33.2637 49.2474 32.9274 49.2474L30.5956 49.1851L30.1304 48.6251V48.3703L30.4845 47.9392L34.04 47.8074C34.5006 47.8055 34.9589 47.7427 35.403 47.6207C35.4934 47.3643 35.5434 47.0954 35.5511 46.8236V45.9999L35.3837 45.4962L35.7585 45.4399L36.7867 46.1318C36.9381 46.2149 37.0561 46.3477 37.1209 46.5077C37.1857 46.6678 37.1932 46.8453 37.1422 47.0103L37.0296 47.4399L37.1037 47.6266C37.5818 47.6728 38.062 47.6915 38.5422 47.6829C38.9614 47.6695 39.381 47.6948 39.7956 47.7585C40.1651 47.8147 40.5203 47.942 40.8415 48.1333L40.9363 48.5051C40.8658 48.6858 40.7382 48.8384 40.5729 48.9398C40.4076 49.0411 40.2137 49.0857 40.0208 49.0666C39.5284 49.1136 39.0338 49.1324 38.5393 49.1229C38.0517 49.1375 37.5654 49.181 37.083 49.2533C36.7833 49.6328 36.5549 50.0634 36.4089 50.5244C36.84 50.7111 38.3348 50.8044 38.84 50.8607C39.2509 50.9156 39.6567 51.0038 40.0533 51.1244C40.2533 51.4592 40.2533 52.0755 40.317 52.4577C40.3808 52.8399 40.3911 53.1985 40.4652 53.5807C40.52 53.9957 40.52 54.4161 40.4652 54.831C40.3006 55.3178 40.1811 55.8187 40.1082 56.3273C40.0551 56.8107 39.8819 57.2732 39.6045 57.6725C39.16 57.6607 38.2133 57.5555 38.2133 57.5555L38.2222 57.554ZM31.2593 62.9185L31.1274 61.8518C31.2208 61.5539 31.3809 61.2813 31.5956 61.0548C31.7941 60.794 31.9496 60.5511 32.117 60.314L33.1837 60.1259C33.52 60.1822 33.9511 60.314 34.3052 60.3703C34.6665 60.4547 35.001 60.6278 35.2785 60.874L35.3896 61.2488L35.2222 61.6207C34.865 61.8674 34.482 62.0745 34.08 62.2385C33.6654 62.429 33.2412 62.5976 32.8089 62.7436C32.3852 62.886 31.9783 63.0743 31.5956 63.3051L31.2593 62.9185ZM38.0059 55.3288L37.4133 55.1985C37.1209 55.2802 36.8192 55.324 36.5156 55.3288C36.1826 55.3154 35.8492 55.3348 35.52 55.3866L33.2045 55.2592C33.0491 55.4352 32.9235 55.6353 32.8326 55.8518L38.0741 56.0859L38.0059 55.3288ZM37.9882 54.1703L37.9141 53.7585L37.203 53.7022C36.6623 53.7704 36.1182 53.8075 35.5733 53.8133H33.84L33.3956 53.7585L33.1956 54.1333C33.7308 54.2519 34.277 54.3145 34.8252 54.3199C35.3226 54.3661 35.8221 54.3849 36.3215 54.3762C36.8528 54.4641 37.3904 54.5077 37.9289 54.5066L37.9882 54.1703ZM38.0445 52.4311L37.8445 52.1703C37.3022 52.0948 36.5111 52.1318 36.1808 52.0755C35.7704 52.0207 35.3393 51.9451 34.9852 51.8888C34.5647 51.8148 34.1346 51.8148 33.7141 51.8888L33.3156 52.1318L33.2015 52.4281C33.6961 52.6252 34.2218 52.7331 34.7541 52.7466H36.1482C36.5926 52.8029 37.0282 52.8577 37.7556 52.9318L38.0445 52.4311ZM39.9333 62.5051C39.5099 62.2974 39.1191 62.0289 38.7733 61.7081C38.4291 61.3937 38.0377 61.1352 37.6133 60.9422L37.5956 60.5436H39.3882C39.8933 60.7436 40.323 61.0296 40.7511 61.2533C41.195 61.5009 41.6151 61.7891 42.0059 62.114L42.0785 62.5244L41.1082 62.9925C40.694 62.8881 40.2979 62.7218 39.9333 62.4992V62.5051Z" fill="#F5EFED"/>
<path d="M75.12 50.7689C75.0173 50.6717 74.9355 50.5545 74.8797 50.4246C74.8239 50.2947 74.7953 50.1547 74.7955 50.0133V22.0296C74.7863 21.735 74.8926 21.4484 75.0918 21.2311C75.1907 21.125 75.3111 21.0413 75.445 20.9856C75.5789 20.9299 75.7232 20.9034 75.8681 20.9081H87.2074C91.4622 20.9081 94.7684 21.9215 97.1259 23.9481C99.4834 25.9748 100.718 28.8854 100.83 32.68C100.869 33.5106 100.889 34.6173 100.889 36C100.889 37.3827 100.875 38.475 100.846 39.277C100.558 47.1545 96.0874 51.0928 87.4355 51.0918H75.88C75.7379 51.0929 75.5972 51.0648 75.4665 51.0093C75.3357 50.9537 75.2178 50.8719 75.12 50.7689ZM87.2133 44.6237C89.0247 44.6237 90.3615 44.1926 91.2237 43.3303C92.0859 42.4681 92.5462 41.0884 92.6044 39.1911C92.6607 38.3575 92.6894 37.2795 92.6904 35.957C92.6913 34.6345 92.6627 33.5708 92.6044 32.7659C92.5472 30.9279 92.0509 29.5698 91.1155 28.6918C90.1802 27.8138 88.8079 27.3753 86.9985 27.3763H82.9022V44.6237H87.2133Z" fill="#252323"/>
<path d="M99.5244 50.8149C99.4378 50.7354 99.3682 50.6391 99.3201 50.5319C99.2719 50.4247 99.2462 50.3087 99.2444 50.1912C99.2387 50.0603 99.2532 49.9294 99.2874 49.803L109.333 22.1586C109.621 21.326 110.196 20.9092 111.059 20.9082H117.785C118.647 20.9082 119.222 21.325 119.51 22.1586L129.556 49.7986C129.59 49.9249 129.605 50.0558 129.6 50.1867C129.586 50.4224 129.486 50.6448 129.319 50.8116C129.152 50.9784 128.929 51.0782 128.693 51.0919H123.089C122.776 51.107 122.466 51.0235 122.203 50.8531C121.94 50.6828 121.737 50.4341 121.622 50.1423L120.07 45.9601H108.773L107.221 50.1423C107.107 50.434 106.904 50.6826 106.641 50.853C106.378 51.0233 106.068 51.1069 105.756 51.0919H100.148C100.031 51.0906 99.9149 51.0654 99.8077 51.0177C99.7005 50.9701 99.6041 50.9011 99.5244 50.8149ZM110.584 39.4964H118.259L114.422 28.5023L110.584 39.4964Z" fill="#252323"/>
<path d="M129.926 50.7689C129.823 50.6717 129.741 50.5546 129.686 50.4247C129.63 50.2947 129.601 50.1548 129.602 50.0133V22.0296C129.592 21.735 129.699 21.4484 129.898 21.2311C129.997 21.1249 130.117 21.041 130.251 20.9853C130.385 20.9296 130.529 20.9033 130.674 20.9082H142.526C146.321 20.9082 149.288 21.7709 151.43 23.4963C153.571 25.2217 154.642 27.6504 154.642 30.7822C154.642 32.7961 154.174 34.5067 153.24 35.9141C152.282 37.3429 150.946 38.4774 149.381 39.1911L155.202 49.7096C155.281 49.8558 155.326 50.0187 155.332 50.1852C155.331 50.4191 155.238 50.6432 155.073 50.8089C154.992 50.8999 154.892 50.9722 154.781 51.0208C154.669 51.0694 154.548 51.0931 154.427 51.0904H148.353C147.518 51.0904 146.929 50.7022 146.585 49.9259L141.844 40.5689H137.705V50.0119C137.71 50.1568 137.683 50.3011 137.628 50.435C137.572 50.5689 137.488 50.6893 137.382 50.7882C137.165 50.9874 136.878 51.0937 136.584 51.0845H130.677C130.537 51.0853 130.398 51.0578 130.269 51.0035C130.14 50.9493 130.023 50.8695 129.926 50.7689ZM142.495 34.2326C143.73 34.2326 144.672 33.9235 145.319 33.3052C145.965 32.6869 146.289 31.8316 146.289 30.7393C146.289 29.6469 145.965 28.7704 145.319 28.1096C144.672 27.4489 143.73 27.1185 142.495 27.1185H137.705V34.2296L142.495 34.2326Z" fill="#252323"/>
<path d="M159.501 48.5481C157.187 46.5649 156.03 43.5896 156.03 39.6222V22.0296C156.02 21.735 156.127 21.4484 156.326 21.2311C156.425 21.125 156.545 21.0413 156.679 20.9856C156.813 20.9299 156.957 20.9034 157.102 20.9081H163.009C163.157 20.9057 163.304 20.9331 163.441 20.9886C163.578 21.0441 163.703 21.1266 163.807 21.2312C163.912 21.3359 163.994 21.4605 164.05 21.5976C164.105 21.7348 164.133 21.8817 164.13 22.0296V39.5363C164.13 41.314 164.555 42.6503 165.403 43.5452C166.251 44.44 167.466 44.8844 169.046 44.8785C170.626 44.8785 171.84 44.4261 172.689 43.5215C173.537 42.6168 173.961 41.2874 173.961 39.5333V22.0296C173.959 21.8817 173.986 21.7348 174.042 21.5976C174.097 21.4605 174.18 21.3359 174.285 21.2312C174.389 21.1266 174.514 21.0441 174.651 20.9886C174.788 20.9331 174.935 20.9057 175.083 20.9081H180.947C181.095 20.9059 181.241 20.9334 181.378 20.989C181.515 21.0446 181.64 21.1271 181.745 21.2317C181.849 21.3363 181.932 21.4608 181.987 21.5978C182.043 21.7349 182.07 21.8817 182.068 22.0296V39.6222C182.068 43.5886 180.918 46.5639 178.618 48.5481C176.318 50.5323 173.141 51.5239 169.089 51.5229C165.005 51.5229 161.809 50.5313 159.501 48.5481Z" fill="#252323"/>
<path d="M184.724 50.7897C184.618 50.6908 184.535 50.5704 184.479 50.4365C184.423 50.3026 184.397 50.1583 184.401 50.0134V22.0297C184.399 21.8817 184.426 21.7348 184.482 21.5977C184.537 21.4605 184.62 21.3359 184.725 21.2313C184.829 21.1267 184.954 21.0442 185.091 20.9887C185.228 20.9332 185.375 20.9058 185.523 20.9082H190.396C190.72 20.892 191.041 20.9739 191.318 21.1433C191.595 21.3128 191.814 21.5618 191.947 21.8578L199.363 35.1378L206.824 21.8578C206.956 21.5617 207.176 21.3125 207.452 21.1431C207.729 20.9736 208.051 20.8918 208.375 20.9082H213.247C213.395 20.9058 213.542 20.9332 213.679 20.9887C213.817 21.0442 213.941 21.1267 214.046 21.2313C214.15 21.3359 214.233 21.4605 214.288 21.5977C214.344 21.7348 214.371 21.8817 214.369 22.0297V50.0134C214.374 50.1583 214.347 50.3026 214.291 50.4365C214.236 50.5704 214.152 50.6908 214.046 50.7897C213.829 50.9892 213.542 51.0956 213.247 51.086H207.766C207.482 51.0788 207.212 50.9629 207.011 50.7622C206.81 50.5615 206.695 50.2913 206.687 50.0075V34.3186L202.031 42.8563C201.665 43.5201 201.163 43.8519 200.527 43.8519H198.2C197.624 43.8519 197.121 43.5215 196.69 42.8608L192.077 34.323V50.0134C192.082 50.1585 192.055 50.3029 191.999 50.4369C191.943 50.5708 191.859 50.6911 191.753 50.7897C191.536 50.9891 191.25 51.0955 190.956 51.086H185.523C185.228 51.0956 184.942 50.9892 184.724 50.7897Z" fill="#252323"/>
<path d="M212.296 50.8756C212.224 50.8019 212.168 50.7142 212.13 50.6179C212.093 50.5216 212.076 50.4188 212.08 50.3156C212.082 50.1355 212.126 49.9584 212.209 49.7986L228.465 21.9867C228.896 21.2677 229.485 20.9082 230.233 20.9082H235.277C236.026 20.9082 236.457 21.2677 236.572 21.9867L241.055 49.7986C241.113 50.2001 241.055 50.5171 240.862 50.7467C240.772 50.859 240.656 50.9487 240.525 51.0086C240.394 51.0686 240.251 51.0971 240.107 51.0919H236.356C235.664 51.0919 235.276 50.761 235.191 50.0993L234.243 45.0549H221.481L218.333 50.2726C218.204 50.5251 218.006 50.736 217.762 50.8809C217.518 51.0258 217.238 51.0989 216.954 51.0919H212.859C212.756 51.0963 212.652 51.0793 212.555 51.0421C212.459 51.0049 212.37 50.9482 212.296 50.8756ZM224.067 40.0534H233.812L231.738 26.7734L224.067 40.0534Z" fill="#252323"/>
<path d="M242.439 50.7897C242.366 50.6838 242.316 50.5636 242.294 50.4371C242.271 50.3106 242.276 50.1808 242.308 50.0563L248.259 21.9867C248.308 21.6826 248.466 21.4068 248.704 21.2104C248.94 21.0143 249.238 20.9092 249.545 20.9141H260.713C263.761 20.9141 266.111 21.525 267.763 22.7467C269.415 23.9684 270.242 25.7294 270.242 28.0297C270.235 28.8122 270.148 29.592 269.984 30.3571C269.552 32.4558 268.682 34.2168 267.375 35.64C266.043 37.0779 264.357 38.1405 262.486 38.7215L266.41 49.7171C266.439 49.8743 266.439 50.0354 266.41 50.1926C266.395 50.3217 266.353 50.4461 266.286 50.5575C266.219 50.6689 266.129 50.7647 266.022 50.8386C265.827 50.9981 265.584 51.0891 265.332 51.0978H261.366C260.877 51.0978 260.531 50.9902 260.329 50.7749C260.115 50.5359 259.967 50.2462 259.898 49.9334L256.49 39.7111H250.582L248.384 50.0593C248.326 50.3482 248.169 50.6078 247.939 50.7926C247.703 50.9885 247.405 51.0936 247.098 51.0889H243.13C242.999 51.1008 242.867 51.0796 242.746 51.0274C242.626 50.9751 242.52 50.8934 242.439 50.7897ZM257.659 34.7897C259.354 34.7897 260.712 34.4089 261.733 33.6474C262.755 32.886 263.423 31.7719 263.739 30.3052C263.823 29.8937 263.866 29.4749 263.868 29.0548C263.868 27.9931 263.509 27.1739 262.79 26.5971C262.071 26.0203 260.993 25.7339 259.556 25.7378H253.52L251.622 34.7926L257.659 34.7897Z" fill="#252323"/>
<path d="M273.63 50.7896C273.551 50.6865 273.497 50.5669 273.471 50.4399C273.446 50.3129 273.449 50.1818 273.481 50.0563L278.57 26.2978H270.593C270.463 26.3037 270.334 26.2773 270.218 26.2209C270.101 26.1645 270 26.0799 269.924 25.9748C269.846 25.8674 269.793 25.7443 269.767 25.6141C269.742 25.4839 269.745 25.3496 269.776 25.2207L270.467 21.9866C270.516 21.6858 270.669 21.4114 270.898 21.2103C271.124 21.0124 271.416 20.9067 271.717 20.9141H293.791C293.922 20.9023 294.053 20.9233 294.173 20.975C294.293 21.0267 294.399 21.1076 294.48 21.2103C294.554 21.324 294.603 21.4515 294.626 21.585C294.648 21.7185 294.643 21.8552 294.61 21.9866L293.926 25.2207C293.875 25.5262 293.713 25.8023 293.473 25.997C293.251 26.1878 292.968 26.2929 292.676 26.2933H284.741L279.652 50.0518C279.603 50.3518 279.442 50.6218 279.2 50.8059C278.973 50.9875 278.692 51.0867 278.401 51.0874H274.348C274.213 51.0986 274.078 51.0774 273.953 51.0256C273.828 50.9738 273.717 50.8929 273.63 50.7896Z" fill="#252323"/>
<path d="M294.244 50.5304C292.565 49.8696 291.301 48.9807 290.45 47.8637C289.624 46.8061 289.176 45.5021 289.178 44.16C289.188 43.8278 289.217 43.4965 289.264 43.1674C289.297 42.928 289.412 42.7073 289.588 42.5422C289.675 42.4526 289.779 42.3816 289.893 42.3335C290.008 42.2853 290.132 42.2611 290.256 42.2622H294.265C294.53 42.2437 294.793 42.3204 295.006 42.4785C295.194 42.6435 295.342 42.8499 295.437 43.0815C295.553 44.0306 296.046 44.843 296.919 45.5185C297.791 46.1941 299.065 46.5274 300.741 46.5185C302.753 46.5185 304.369 46.1807 305.591 45.5052C306.813 44.8296 307.539 43.9022 307.769 42.723C307.816 42.5097 307.844 42.2925 307.852 42.0741C307.857 41.7724 307.795 41.4734 307.672 41.1978C307.55 40.9222 307.368 40.6768 307.141 40.4785C306.667 40.0479 305.962 39.6598 305.028 39.3141C304.094 38.9684 302.736 38.5373 300.954 38.0208C298.252 37.36 296.24 36.4474 294.917 35.283C293.595 34.1185 292.933 32.602 292.933 30.7333C292.924 30.0359 292.997 29.3398 293.15 28.6593C293.695 26.1299 295.053 24.1324 297.224 22.6667C299.395 21.201 302.204 20.4677 305.653 20.4667C307.781 20.4667 309.635 20.8331 311.216 21.5659C312.798 22.2988 314.004 23.2331 314.837 24.3689C315.672 25.5047 316.089 26.6474 316.089 27.797C316.079 28.0576 316.05 28.3171 316.002 28.5733C315.952 28.8178 315.832 29.0423 315.656 29.2193C315.572 29.3045 315.471 29.3715 315.36 29.4161C315.249 29.4607 315.13 29.4819 315.01 29.4785H310.828C310.224 29.4785 309.85 29.2198 309.707 28.7022C309.734 27.8133 309.332 27.0519 308.499 26.4178C307.667 25.7837 306.587 25.4716 305.261 25.4815C303.65 25.4815 302.313 25.7837 301.25 26.3882C300.748 26.6553 300.31 27.0291 299.968 27.4834C299.626 27.9376 299.387 28.4614 299.268 29.0178C299.219 29.2739 299.19 29.5334 299.181 29.7941C299.181 30.6563 299.641 31.3605 300.562 31.9067C301.482 32.4528 303.092 33.0277 305.391 33.6311C308.437 34.3511 310.665 35.2785 312.074 36.4133C313.483 37.5482 314.188 39.0642 314.187 40.9615C314.171 41.6277 314.099 42.2913 313.97 42.9452C313.367 45.763 311.901 47.8973 309.573 49.3482C307.245 50.799 304.169 51.5249 300.345 51.5259C297.959 51.524 295.925 51.1921 294.244 50.5304Z" fill="#252323"/>
</svg>
