<svg width="366" height="228" viewBox="0 0 366 228" fill="none" xmlns="http://www.w3.org/2000/svg">
<path d="M228.57 113.747H219.456C213.002 113.747 207.775 118.994 207.775 125.462V150.01L186.464 119.336C186.237 118.963 185.985 118.607 185.717 118.26C185.717 118.26 184.531 116.833 184.196 116.647C182.139 114.843 179.453 113.747 176.505 113.747H163.782C157.328 113.747 152.101 118.994 152.101 125.462V141.872C152.014 142.751 152.014 143.64 152.101 144.519V190.776H176.505C181.335 190.776 185.603 190.703 188.186 194.395L209.434 221.791C211.476 225.198 215.198 227.483 219.456 227.483H228.57C235.024 227.483 240.251 222.235 240.251 215.768V125.462C240.251 118.994 235.024 113.747 228.57 113.747Z" fill="#4CBCB1"/>
<path d="M95.3972 179.582V124.945C95.3972 118.472 100.629 113.23 107.078 113.23H119.801C126.255 113.23 131.482 118.477 131.482 124.945V179.582C131.482 186.055 126.249 191.298 119.801 191.298H107.078C100.629 191.298 95.3972 186.05 95.3972 179.582Z" fill="#FC7E5B"/>
<path d="M101.727 0.118917H11.6811C5.2271 0.118917 0 5.36654 0 11.8343V24.594C0 31.0669 5.23225 36.3094 11.6811 36.3094H38.6929V102.145C38.6929 108.618 43.9252 113.86 50.374 113.86H63.0963C69.5503 113.86 74.7774 108.613 74.7774 102.145V36.3094H101.727C108.181 36.3094 113.408 31.0618 113.408 24.594V11.8343C113.408 5.36654 108.176 0.118917 101.727 0.118917Z" fill="#FC7E5B"/>
<path d="M315.688 149.937C322.142 149.937 327.369 144.69 327.369 138.222V125.462C327.369 118.989 322.137 113.747 315.688 113.747H251.932C245.478 113.747 240.251 118.994 240.251 125.462L240.251 215.773C240.251 222.246 245.483 227.488 251.932 227.488H315.688C322.142 227.488 327.369 222.241 327.369 215.773V203.013C327.369 196.54 322.137 191.298 315.688 191.298H276.335V188.196H315.688C322.142 188.196 327.369 182.948 327.369 176.48V163.721C327.369 157.248 322.137 152.005 315.688 152.005H276.335V149.937H315.688Z" fill="#FC7E5B"/>
<path d="M236.946 84.8408L232.802 80.6841C233.822 80.2291 234.766 79.6294 235.606 78.9159C235.606 78.9159 235.606 78.9159 235.611 78.9107C235.823 78.735 236.024 78.5488 236.219 78.3524C236.415 78.1611 236.601 77.9646 236.787 77.7578C236.792 77.7527 236.797 77.7475 236.802 77.7423C236.972 77.551 237.137 77.3494 237.297 77.1478C237.307 77.1322 237.323 77.1167 237.333 77.1012C237.493 76.8893 237.647 76.6773 237.797 76.455C237.807 76.4395 237.812 76.4291 237.823 76.4136C237.957 76.212 238.08 76.0052 238.204 75.7932C238.225 75.7622 238.24 75.726 238.261 75.695C238.385 75.4675 238.508 75.24 238.617 75.0073C238.627 74.9867 238.637 74.966 238.642 74.9453C238.74 74.7333 238.833 74.5162 238.921 74.299C238.941 74.2525 238.957 74.2008 238.977 74.1543C239.07 73.9165 239.153 73.6735 239.225 73.4305C239.23 73.4098 239.235 73.3839 239.245 73.3633C239.312 73.141 239.369 72.9186 239.426 72.6912C239.441 72.6291 239.457 72.5722 239.467 72.5102C239.524 72.262 239.57 72.0087 239.611 71.7554C239.617 71.7399 239.617 71.7192 239.617 71.7037C239.653 71.4658 239.678 71.2229 239.699 70.9799C239.704 70.9127 239.709 70.8454 239.715 70.7782C239.73 70.5197 239.745 70.2561 239.745 69.9924C239.745 69.9924 239.745 69.9924 239.745 69.9872V11.7205C239.745 7.92054 237.941 4.54966 235.147 2.40408C235.07 2.34721 234.998 2.29034 234.92 2.23347C234.431 1.87673 233.915 1.56136 233.374 1.28218C233.199 1.19429 233.023 1.10639 232.843 1.02884C231.384 0.372245 229.766 0 228.064 0H163.793C157.339 0 152.112 5.24762 152.112 11.7154V102.026C152.112 108.499 157.344 113.742 163.793 113.742H176.515C182.969 113.742 188.196 108.494 188.196 102.026V87.1208L211.44 110.433C216.002 115.008 223.399 115.008 227.961 110.433L236.957 101.411C241.508 96.8354 241.508 89.4163 236.946 84.8408ZM188.186 35.6786H203.651V45.5018H188.186V35.6786Z" fill="#FC7E5B"/>
<path d="M327.369 24.594V11.8343C327.369 8.59783 326.06 5.67157 323.946 3.55184C323.652 3.25715 323.343 2.98313 323.023 2.71946C322.807 2.54368 322.58 2.37307 322.353 2.2128C321.925 1.91293 321.477 1.64409 321.013 1.40626C320.853 1.32354 320.688 1.24599 320.523 1.16844C319.049 0.496332 317.415 0.118917 315.693 0.118917H251.421C244.967 0.118917 239.74 5.36654 239.74 11.8343V102.145C239.74 108.618 244.973 113.86 251.421 113.86H264.144C270.598 113.86 275.825 108.613 275.825 102.145V81.806H291.29V102.145C291.29 108.618 296.522 113.86 302.971 113.86H315.693C322.147 113.86 327.374 108.613 327.374 102.145V24.594C327.369 24.594 327.369 24.594 327.369 24.594ZM275.82 45.6155V36.3094H291.284V45.6155H275.82Z" fill="#4CBCB1"/>
<path d="M140.42 113.86H86.4585C80.0045 113.86 74.7774 108.613 74.7774 102.145L74.7774 48.0248C74.7774 41.5518 80.0097 36.3094 86.4585 36.3094H140.42C146.874 36.3094 152.101 41.557 152.101 48.0248V102.145C152.101 108.618 146.874 113.86 140.42 113.86Z" fill="#4CBCB1"/>
<path d="M119.801 92.5494H107.078C100.624 92.5494 95.3972 87.3018 95.3972 80.834V68.0743C95.3972 61.6014 100.629 56.3589 107.078 56.3589H119.801C126.255 56.3589 131.482 61.6065 131.482 68.0743V80.834C131.482 87.3018 126.255 92.5494 119.801 92.5494Z" fill="#FC7E5B"/>
<path d="M176.505 193.366H74.7774V125.462C74.7774 118.989 69.5452 113.747 63.0964 113.747H50.374C43.92 113.747 38.6929 118.994 38.6929 125.462V215.773C38.6929 222.246 43.9252 227.488 50.374 227.488H176.505C182.959 227.488 188.186 222.241 188.186 215.773V205.081C188.186 198.613 182.959 193.366 176.505 193.366Z" fill="#4CBCB1"/>
</svg>
