<?xml version="1.0" standalone="no"?>
<!DOCTYPE svg PUBLIC "-//W3C//DTD SVG 20010904//EN"
 "http://www.w3.org/TR/2001/REC-SVG-20010904/DTD/svg10.dtd">
<svg version="1.0" xmlns="http://www.w3.org/2000/svg"
 width="944.000000pt" height="944.000000pt" viewBox="0 0 944.000000 944.000000"
 preserveAspectRatio="xMidYMid meet">
<metadata>
Created by potrace 1.14, written by Peter Selinger 2001-2017
</metadata>
<g transform="translate(0.000000,944.000000) scale(0.100000,-0.100000)"
fill="#000000" stroke="none">
<path d="M3688 9285 c-3 -3 -68 -8 -144 -10 -76 -3 -155 -7 -174 -9 -19 -3
-60 -8 -90 -11 -30 -3 -66 -8 -80 -10 -54 -8 -226 -37 -240 -40 -16 -4 -106
-24 -130 -30 -47 -12 -189 -55 -212 -64 -16 -6 -28 -8 -28 -5 0 2 -13 -2 -29
-11 -17 -8 -38 -17 -48 -18 -10 -2 -31 -10 -48 -16 -16 -7 -57 -23 -90 -36
-33 -12 -99 -41 -147 -64 -48 -23 -89 -41 -90 -40 -3 1 -52 -25 -143 -78 -22
-13 -52 -28 -67 -34 -16 -6 -28 -15 -28 -20 0 -5 -5 -9 -10 -9 -11 0 -141 -79
-150 -91 -3 -3 -15 -11 -27 -18 -12 -6 -51 -34 -87 -61 -36 -28 -70 -50 -75
-50 -5 0 -11 -4 -13 -9 -1 -5 -32 -32 -68 -61 -165 -132 -430 -392 -430 -422
0 -6 -3 -9 -6 -5 -8 8 -153 -174 -245 -307 -80 -114 -209 -328 -209 -345 0 -6
-4 -11 -10 -11 -5 0 -9 -3 -8 -7 0 -5 -25 -62 -57 -128 -33 -66 -60 -124 -61
-130 -1 -5 -18 -48 -37 -95 -43 -107 -49 -123 -52 -135 -6 -23 -47 -152 -55
-170 -5 -11 -11 -33 -15 -50 -4 -16 -9 -37 -11 -45 -15 -60 -26 -108 -30 -125
-2 -11 -6 -31 -9 -45 -6 -26 -33 -177 -40 -220 -16 -103 -26 -214 -28 -317 -1
-35 -6 -63 -10 -63 -5 0 -5 -5 -1 -12 11 -17 11 -58 1 -58 -4 0 -3 -9 3 -20 8
-14 8 -26 0 -40 -8 -14 -8 -20 0 -20 8 0 8 -6 0 -20 -8 -14 -8 -20 0 -20 8 0
8 -6 0 -20 -8 -14 -8 -20 0 -20 7 0 8 -6 2 -17 -9 -18 -8 -50 2 -60 3 -3 1
-14 -4 -24 -7 -12 -7 -20 0 -24 7 -4 7 -13 0 -24 -6 -12 -5 -22 1 -28 8 -8 7
-13 0 -17 -8 -5 -8 -13 -1 -27 7 -12 7 -19 1 -19 -7 0 -7 -9 -1 -25 6 -16 6
-25 0 -25 -6 0 -6 -9 -2 -22 9 -26 8 -60 -2 -77 -4 -6 -2 -11 4 -11 8 0 8 -6
0 -20 -8 -14 -8 -20 0 -20 8 0 8 -6 0 -20 -8 -14 -8 -20 0 -20 7 0 8 -6 2 -17
-9 -18 -8 -50 2 -60 3 -3 1 -14 -4 -24 -7 -12 -7 -20 0 -24 7 -4 7 -13 0 -26
-8 -13 -7 -19 0 -19 7 0 8 -6 1 -18 -6 -11 -6 -24 0 -35 7 -11 7 -17 0 -17 -7
0 -7 -8 -1 -25 6 -16 6 -25 0 -25 -6 0 -6 -9 -2 -22 9 -26 8 -60 -2 -77 -4 -6
-2 -11 4 -11 8 0 8 -6 0 -20 -8 -14 -8 -20 0 -20 8 0 8 -6 0 -20 -8 -14 -8
-20 0 -20 7 0 8 -6 2 -17 -9 -18 -8 -50 2 -60 3 -3 1 -14 -4 -24 -7 -12 -7
-20 0 -24 7 -4 7 -13 0 -24 -6 -12 -5 -22 1 -28 8 -8 7 -13 0 -17 -8 -5 -8
-13 -1 -27 7 -12 7 -19 1 -19 -7 0 -7 -9 -1 -25 6 -16 6 -25 0 -25 -6 0 -6 -9
-2 -22 9 -26 8 -60 -2 -77 -4 -6 -2 -11 4 -11 8 0 8 -6 0 -20 -8 -14 -8 -20 0
-20 8 0 8 -6 0 -20 -8 -14 -8 -20 0 -20 7 0 8 -6 2 -17 -9 -18 -8 -50 2 -60 3
-3 1 -14 -4 -24 -7 -12 -7 -20 0 -24 7 -4 7 -13 0 -26 -8 -13 -7 -19 0 -19 7
0 8 -6 1 -18 -6 -11 -6 -24 0 -35 7 -11 7 -17 0 -17 -7 0 -7 -8 -1 -25 6 -16
6 -25 0 -25 -6 0 -6 -9 -2 -22 9 -26 8 -60 -2 -77 -4 -6 -2 -11 4 -11 8 0 8
-6 0 -20 -8 -14 -8 -20 0 -20 8 0 8 -6 0 -20 -8 -14 -8 -20 0 -20 7 0 8 -6 2
-17 -9 -18 -8 -50 2 -60 3 -3 1 -14 -4 -24 -7 -12 -7 -20 0 -24 7 -4 7 -13 0
-24 -6 -12 -5 -22 1 -28 8 -8 7 -13 0 -17 -8 -5 -8 -13 -1 -27 7 -12 7 -19 1
-19 -7 0 -7 -9 -1 -25 6 -16 6 -25 0 -25 -6 0 -6 -9 -2 -22 9 -26 8 -60 -2
-77 -4 -6 -2 -11 4 -11 8 0 8 -6 0 -20 -8 -14 -8 -20 0 -20 8 0 8 -6 0 -20 -8
-14 -8 -20 0 -20 7 0 8 -6 2 -17 -9 -18 -8 -50 2 -60 3 -3 1 -14 -4 -24 -7
-12 -7 -20 0 -24 7 -4 7 -13 0 -26 -8 -13 -7 -19 0 -19 7 0 8 -6 1 -18 -6 -11
-6 -24 0 -35 7 -11 7 -17 0 -17 -7 0 -7 -8 -1 -25 6 -16 6 -25 0 -25 -6 0 -6
-9 -2 -22 9 -26 8 -60 -2 -77 -4 -6 -2 -11 4 -11 8 0 8 -6 0 -20 -8 -14 -8
-20 0 -20 8 0 8 -6 0 -20 -8 -14 -8 -20 0 -20 7 0 8 -6 2 -17 -9 -18 -8 -50 2
-60 3 -3 1 -14 -4 -24 -7 -12 -7 -20 0 -24 7 -4 7 -13 0 -24 -6 -12 -5 -22 1
-28 8 -8 7 -13 0 -17 -8 -5 -8 -13 -1 -27 7 -12 7 -19 1 -19 -7 0 -7 -9 -1
-25 6 -16 6 -25 0 -25 -6 0 -6 -9 -2 -22 9 -26 8 -60 -2 -77 -4 -6 -2 -11 4
-11 8 0 8 -6 0 -20 -8 -14 -8 -20 0 -20 8 0 8 -6 0 -20 -8 -14 -8 -20 0 -20 7
0 7 -6 0 -21 -8 -15 -8 -24 0 -34 8 -9 8 -15 0 -20 -6 -3 -7 -11 -3 -18 4 -6
8 -43 9 -82 2 -80 10 -158 24 -230 5 -27 12 -63 15 -80 3 -16 12 -55 20 -85 9
-30 23 -79 31 -109 8 -30 20 -61 26 -68 6 -7 8 -13 5 -13 -10 0 118 -286 134
-300 10 -8 33 -54 32 -61 -1 -4 7 -15 17 -24 11 -10 20 -24 20 -32 0 -7 4 -13
9 -13 5 0 13 -9 16 -20 3 -11 12 -26 18 -32 7 -7 32 -40 57 -73 91 -122 233
-264 359 -362 9 -7 39 -31 67 -53 29 -22 55 -40 59 -40 4 0 25 -14 46 -31 21
-17 39 -28 39 -25 0 6 48 -22 60 -34 5 -5 102 -53 185 -90 106 -48 350 -124
366 -114 5 3 9 1 9 -3 0 -5 8 -9 18 -10 9 0 26 -3 37 -6 11 -2 45 -8 75 -12
30 -4 64 -9 75 -11 20 -4 267 -17 295 -15 56 3 143 0 151 -4 5 -4 9 -3 9 2 0
4 28 7 62 6 98 -4 99 -4 171 -3 38 0 73 -2 78 -5 5 -4 9 -3 9 2 0 4 57 7 127
6 142 -3 188 -3 218 -2 11 0 53 0 93 -1 40 0 77 2 82 5 5 3 11 1 15 -5 4 -6
10 -8 14 -6 8 5 54 7 181 6 47 0 113 0 148 0 35 0 68 -2 73 -5 5 -4 9 -3 9 2
0 4 28 7 62 6 98 -4 99 -4 171 -3 38 0 73 -2 78 -5 5 -4 9 -3 9 2 0 4 57 7
127 6 142 -3 188 -3 218 -2 11 0 53 0 93 -1 40 0 77 2 82 5 5 3 11 1 15 -5 4
-6 10 -8 14 -6 8 5 54 7 181 6 47 0 113 0 148 0 35 0 68 -2 73 -5 5 -4 9 -3 9
2 0 4 28 7 62 6 98 -4 99 -4 171 -3 38 0 73 -2 78 -5 5 -4 9 -3 9 2 0 4 57 7
127 6 142 -3 188 -3 218 -2 11 0 53 0 93 -1 40 0 77 2 82 5 5 3 11 1 15 -5 4
-6 10 -8 14 -6 8 5 54 7 181 6 47 0 113 0 148 0 35 0 68 -2 73 -5 5 -4 9 -3 9
2 0 4 28 7 62 6 98 -4 99 -4 171 -3 38 0 73 -2 78 -5 5 -4 9 -3 9 2 0 4 57 7
127 6 142 -3 188 -3 218 -2 11 0 53 0 93 -1 40 0 77 2 82 5 5 3 11 2 14 -3 3
-5 27 -6 55 -2 27 3 58 3 70 -2 12 -4 21 -4 21 0 0 4 24 7 53 8 55 1 173 12
210 20 23 5 69 13 103 19 31 5 218 56 229 63 6 4 16 7 24 9 25 3 234 96 273
120 21 13 45 23 53 23 9 0 18 7 21 15 4 8 11 15 16 15 6 0 30 14 55 30 24 17
46 30 49 30 7 0 170 125 211 162 103 94 211 210 290 313 63 81 197 304 193
321 -1 4 2 10 7 13 8 5 82 171 88 195 1 6 5 18 9 26 6 14 43 137 51 170 33
139 59 296 50 310 -3 5 -2 11 3 14 4 2 8 39 7 80 0 42 3 76 7 76 4 0 3 11 -2
25 -6 16 -6 25 0 25 6 0 6 9 0 25 -6 16 -6 25 0 25 6 0 6 9 0 25 -6 16 -6 25
0 25 6 0 5 11 -1 28 -6 15 -11 27 -11 27 -1 0 4 10 11 23 8 15 8 22 1 22 -8 0
-8 6 0 20 8 14 8 20 0 20 -8 0 -8 6 0 20 8 14 8 20 0 20 -8 0 -8 6 0 20 8 14
8 20 0 20 -8 0 -8 6 0 20 8 14 8 20 0 20 -8 0 -8 6 0 20 8 14 8 20 0 20 -8 0
-8 6 0 20 8 14 8 20 0 20 -6 0 -8 5 -5 11 10 16 12 79 2 79 -4 0 -3 8 2 18 6
11 6 24 0 35 -7 11 -7 17 0 17 7 0 7 8 1 25 -6 16 -6 25 1 25 6 0 6 6 0 18 -6
11 -6 24 0 34 6 11 6 19 -1 23 -7 4 -7 13 0 26 8 13 7 19 0 19 -7 0 -8 6 -1
18 6 11 6 24 0 35 -7 11 -7 17 0 17 7 0 7 8 1 25 -6 16 -6 25 0 25 6 0 6 9 0
24 -5 15 -5 27 2 34 6 6 6 12 -1 16 -8 5 -8 13 -1 27 7 12 7 19 1 19 -6 0 -6
11 -1 30 5 17 5 30 2 30 -9 0 -7 64 3 79 3 6 1 11 -5 11 -8 0 -8 6 0 20 8 14
8 20 0 20 -8 0 -8 6 0 20 8 14 8 20 0 20 -8 0 -8 6 0 20 8 14 8 20 0 20 -8 0
-8 6 0 20 8 14 8 20 0 20 -8 0 -8 6 0 20 8 14 8 20 0 20 -8 0 -8 6 0 20 8 14
8 20 0 20 -7 0 -8 6 -2 18 9 17 8 49 -2 59 -3 3 -1 14 4 24 7 12 7 20 0 24 -7
4 -7 12 0 25 6 11 6 21 1 25 -5 3 -6 17 -2 33 5 15 4 37 0 50 -5 13 -4 22 1
22 6 0 6 9 0 25 -5 14 -6 25 -2 25 9 0 8 47 -1 56 -3 3 -2 17 3 30 6 15 6 24
0 24 -6 0 -6 9 0 25 5 14 6 25 2 25 -9 0 -7 53 3 69 3 6 2 11 -4 11 -7 0 -7 8
-1 25 5 13 6 26 1 29 -4 3 -5 28 -1 56 4 27 3 50 -2 50 -5 0 -4 9 2 20 8 14 8
20 0 20 -8 0 -8 6 0 20 7 13 7 20 1 20 -7 0 -7 9 -1 25 6 15 6 27 0 30 -6 3
-6 15 0 30 6 16 6 25 0 25 -6 0 -6 9 0 25 6 16 6 25 -1 25 -6 0 -6 7 1 20 8
14 8 20 0 20 -7 0 -8 6 0 19 7 13 7 22 0 26 -7 4 -7 13 0 26 7 12 7 19 1 19
-6 0 -6 11 -2 28 5 15 4 37 0 50 -5 13 -4 22 1 22 6 0 6 9 0 25 -6 15 -6 26 1
30 5 4 6 13 1 22 -5 8 -6 33 -2 54 4 22 3 39 -2 39 -5 0 -4 9 2 20 8 14 8 20
0 20 -8 0 -8 6 0 20 7 13 7 20 1 20 -7 0 -7 9 -1 25 6 15 6 27 0 30 -6 3 -6
15 0 30 6 16 6 25 0 25 -6 0 -6 9 0 25 6 16 6 25 -1 25 -6 0 -6 7 1 20 8 14 8
20 0 20 -7 0 -8 6 0 19 7 13 7 22 0 26 -7 4 -7 13 0 26 7 12 7 19 1 19 -6 0
-6 11 -2 28 5 15 4 37 0 50 -5 13 -4 22 1 22 6 0 6 9 0 25 -6 15 -6 26 1 30 6
4 6 13 0 23 -5 9 -5 26 -1 37 5 12 4 28 0 35 -5 8 -4 22 1 31 6 11 5 20 -1 24
-7 4 -7 12 0 25 6 10 7 21 2 24 -9 5 -9 47 1 63 4 5 4 13 0 17 -3 3 -7 48 -9
99 -2 90 -7 160 -20 262 -4 28 -8 61 -10 75 -1 14 -8 52 -14 85 -6 33 -13 76
-16 95 -2 19 -9 49 -14 65 -5 17 -11 47 -15 69 -3 21 -8 42 -11 47 -3 5 -7 19
-10 31 -3 13 -6 28 -8 33 -22 81 -30 109 -47 160 -11 33 -23 67 -26 75 -4 8
-7 18 -8 23 -2 4 -4 9 -5 12 -1 3 -3 9 -4 14 0 5 -4 13 -8 17 -5 4 -8 13 -8
21 0 12 -29 85 -51 125 -5 10 -9 25 -9 33 0 8 -4 15 -10 15 -5 0 -10 7 -10 16
0 35 -180 366 -267 492 -24 34 -40 62 -36 62 5 0 3 4 -2 8 -6 4 -32 36 -58 72
-67 91 -99 131 -119 152 -10 10 -18 20 -18 23 0 5 -15 22 -110 127 -72 80
-320 321 -320 312 0 -2 -12 7 -27 20 -24 20 -147 120 -178 143 -5 5 -30 21
-55 38 -25 16 -47 32 -50 35 -11 12 -220 140 -229 140 -5 0 -11 3 -13 8 -7 15
-383 199 -422 206 -6 1 -21 7 -33 14 -12 7 -29 12 -37 12 -9 0 -16 5 -16 12 0
6 -3 9 -6 6 -3 -3 -55 11 -115 32 -60 21 -109 37 -109 34 0 -2 -12 1 -27 7
-16 6 -37 13 -48 15 -41 10 -50 13 -52 14 -4 3 -13 6 -58 15 -55 11 -71 14
-97 20 -92 22 -215 41 -310 48 -10 1 -18 4 -18 7 0 3 -21 6 -48 7 -26 0 -137
4 -247 8 -110 3 -215 6 -232 5 -45 -1 -46 -1 -153 -1 -52 1 -139 1 -192 0 -54
0 -101 1 -105 2 -5 1 -11 1 -16 0 -7 -1 -50 -1 -177 -1 -36 0 -119 1 -185 1
-66 0 -131 0 -145 -1 -14 -1 -29 -2 -35 -1 -18 0 -198 1 -297 0 -54 0 -101 1
-105 2 -5 1 -11 1 -16 0 -7 -1 -50 -1 -177 -1 -36 0 -118 0 -182 0 -65 -1
-122 1 -127 4 -4 3 -10 3 -13 1z"/>
</g>
</svg>
